<?xml version="1.0" encoding="utf-8"?>
<!-- Generator: Adobe Illustrator 23.0.1, SVG Export Plug-In . SVG Version: 6.00 Build 0)  -->
<svg version="1.1" id="Layer_1" xmlns="http://www.w3.org/2000/svg" xmlns:xlink="http://www.w3.org/1999/xlink" x="0px" y="0px"
	 viewBox="0 0 238.43 272.96" style="enable-background:new 0 0 238.43 272.96;" xml:space="preserve">
<style type="text/css">
	.st0{clip-path:url(#SVGID_2_);fill:#5A585A;}
	.st1{clip-path:url(#SVGID_2_);fill:#595759;}
	.st2{clip-path:url(#SVGID_2_);fill:#585758;}
	.st3{clip-path:url(#SVGID_2_);fill:#585658;}
	.st4{clip-path:url(#SVGID_2_);fill:#575657;}
	.st5{clip-path:url(#SVGID_2_);fill:#565556;}
	.st6{clip-path:url(#SVGID_2_);fill:#565456;}
	.st7{clip-path:url(#SVGID_2_);fill:#555455;}
	.st8{clip-path:url(#SVGID_2_);fill:#545354;}
	.st9{clip-path:url(#SVGID_2_);fill:#535254;}
	.st10{clip-path:url(#SVGID_2_);fill:#535253;}
	.st11{clip-path:url(#SVGID_2_);fill:#525152;}
	.st12{clip-path:url(#SVGID_2_);fill:#515052;}
	.st13{clip-path:url(#SVGID_2_);fill:#514F51;}
	.st14{clip-path:url(#SVGID_2_);fill:#504F50;}
	.st15{clip-path:url(#SVGID_2_);fill:#4F4E50;}
	.st16{clip-path:url(#SVGID_2_);fill:#4E4D4F;}
	.st17{clip-path:url(#SVGID_2_);fill:#4E4D4E;}
	.st18{clip-path:url(#SVGID_2_);fill:#4D4C4D;}
	.st19{clip-path:url(#SVGID_2_);fill:#4C4B4D;}
	.st20{clip-path:url(#SVGID_2_);fill:#4C4A4C;}
	.st21{clip-path:url(#SVGID_2_);fill:#4B4A4B;}
	.st22{clip-path:url(#SVGID_2_);fill:#4A494A;}
	.st23{clip-path:url(#SVGID_2_);fill:#49484A;}
	.st24{clip-path:url(#SVGID_2_);fill:#484749;}
	.st25{clip-path:url(#SVGID_2_);fill:#484648;}
	.st26{clip-path:url(#SVGID_2_);fill:#474647;}
	.st27{clip-path:url(#SVGID_2_);fill:#464546;}
	.st28{clip-path:url(#SVGID_2_);fill:#454446;}
	.st29{clip-path:url(#SVGID_2_);fill:#454345;}
	.st30{clip-path:url(#SVGID_2_);fill:#444244;}
	.st31{clip-path:url(#SVGID_2_);fill:#434243;}
	.st32{clip-path:url(#SVGID_2_);fill:#424142;}
	.st33{clip-path:url(#SVGID_2_);fill:#414041;}
	.st34{clip-path:url(#SVGID_2_);fill:#403F41;}
	.st35{clip-path:url(#SVGID_2_);fill:#403E40;}
	.st36{clip-path:url(#SVGID_2_);fill:#3F3D3F;}
	.st37{clip-path:url(#SVGID_2_);fill:#3E3C3E;}
	.st38{clip-path:url(#SVGID_2_);fill:#3D3C3D;}
	.st39{clip-path:url(#SVGID_2_);fill:#3C3B3C;}
	.st40{clip-path:url(#SVGID_2_);fill:#3A393A;}
	.st41{clip-path:url(#SVGID_2_);fill:#393839;}
	.st42{clip-path:url(#SVGID_2_);fill:#373637;}
	.st43{clip-path:url(#SVGID_2_);fill:#353436;}
	.st44{clip-path:url(#SVGID_2_);fill:#343334;}
	.st45{clip-path:url(#SVGID_2_);fill:#323132;}
	.st46{clip-path:url(#SVGID_2_);fill:#302F30;}
	.st47{clip-path:url(#SVGID_2_);fill:#2E2D2E;}
	.st48{clip-path:url(#SVGID_2_);fill:#2C2B2C;}
	.st49{clip-path:url(#SVGID_2_);fill:#2A292A;}
	.st50{clip-path:url(#SVGID_2_);fill:#282728;}
	.st51{clip-path:url(#SVGID_2_);fill:#262526;}
	.st52{clip-path:url(#SVGID_2_);fill:#242324;}
	.st53{clip-path:url(#SVGID_2_);fill:#212122;}
	.st54{clip-path:url(#SVGID_2_);fill:#1F1E1F;}
	.st55{clip-path:url(#SVGID_2_);fill:#1C1C1D;}
	.st56{clip-path:url(#SVGID_2_);fill:#1A191A;}
	.st57{clip-path:url(#SVGID_2_);fill:#171617;}
	.st58{clip-path:url(#SVGID_2_);fill:#141314;}
	.st59{clip-path:url(#SVGID_2_);fill:#101011;}
	.st60{clip-path:url(#SVGID_2_);fill:#0C0C0D;}
	.st61{clip-path:url(#SVGID_2_);fill:#080808;}
	.st62{clip-path:url(#SVGID_2_);fill:#040404;}
	.st63{clip-path:url(#SVGID_2_);}
	.st64{fill:#FFFFFF;}
</style>
<g>
	<g>
		<defs>
			<path id="SVGID_1_" d="M232.14,209.4c3.46-2,6.29-6.9,6.29-10.9V75.37c0-4-2.83-8.9-6.29-10.9L125.51,2.91
				c-3.46-2-9.13-2-12.59,0L6.29,64.47c-3.46,2-6.29,6.9-6.29,10.9v123.12c0,4,2.83,8.9,6.29,10.9l106.63,61.56
				c3.46,2,9.13,2,12.59,0L232.14,209.4z"/>
		</defs>
		<clipPath id="SVGID_2_">
			<use xlink:href="#SVGID_1_"  style="overflow:visible;"/>
		</clipPath>
		<path class="st0" d="M0,0.91v272.05V0.91z"/>
		<path class="st0" d="M0,0.91v272.05V0.91z"/>
		<rect x="0" y="0.91" class="st0" width="103.64" height="272.05"/>
		<rect x="103.64" y="0.91" class="st0" width="2.11" height="272.05"/>
		<rect x="105.75" y="0.91" class="st1" width="2.11" height="272.05"/>
		<rect x="107.85" y="0.91" class="st2" width="2.11" height="272.05"/>
		<rect x="109.96" y="0.91" class="st3" width="2.11" height="272.05"/>
		<rect x="112.07" y="0.91" class="st4" width="2.11" height="272.05"/>
		<rect x="114.17" y="0.91" class="st5" width="2.11" height="272.05"/>
		<rect x="116.28" y="0.91" class="st6" width="2.11" height="272.05"/>
		<rect x="118.38" y="0.91" class="st7" width="2.11" height="272.05"/>
		<rect x="120.49" y="0.91" class="st8" width="2.11" height="272.05"/>
		<rect x="122.6" y="0.91" class="st9" width="2.11" height="272.05"/>
		<rect x="124.7" y="0.91" class="st10" width="2.11" height="272.05"/>
		<rect x="126.81" y="0.91" class="st11" width="2.11" height="272.05"/>
		<rect x="128.91" y="0.91" class="st12" width="2.11" height="272.05"/>
		<rect x="131.02" y="0.91" class="st13" width="2.11" height="272.05"/>
		<rect x="133.13" y="0.91" class="st14" width="2.11" height="272.05"/>
		<rect x="135.23" y="0.91" class="st15" width="2.11" height="272.05"/>
		<rect x="137.34" y="0.91" class="st16" width="2.11" height="272.05"/>
		<rect x="139.45" y="0.91" class="st17" width="2.11" height="272.05"/>
		<rect x="141.55" y="0.91" class="st18" width="2.11" height="272.05"/>
		<rect x="143.66" y="0.91" class="st19" width="2.11" height="272.05"/>
		<rect x="145.76" y="0.91" class="st20" width="2.11" height="272.05"/>
		<rect x="147.87" y="0.91" class="st21" width="2.11" height="272.05"/>
		<rect x="149.98" y="0.91" class="st22" width="2.11" height="272.05"/>
		<rect x="152.08" y="0.91" class="st23" width="2.11" height="272.05"/>
		<rect x="154.19" y="0.91" class="st24" width="2.11" height="272.05"/>
		<rect x="156.29" y="0.91" class="st25" width="2.11" height="272.05"/>
		<rect x="158.4" y="0.91" class="st26" width="2.11" height="272.05"/>
		<rect x="160.51" y="0.91" class="st27" width="2.11" height="272.05"/>
		<rect x="162.61" y="0.91" class="st28" width="2.11" height="272.05"/>
		<rect x="164.72" y="0.91" class="st29" width="2.11" height="272.05"/>
		<rect x="166.83" y="0.91" class="st30" width="2.11" height="272.05"/>
		<rect x="168.93" y="0.91" class="st31" width="2.11" height="272.05"/>
		<rect x="171.04" y="0.91" class="st32" width="2.11" height="272.05"/>
		<rect x="173.14" y="0.91" class="st33" width="2.11" height="272.05"/>
		<rect x="175.25" y="0.91" class="st34" width="2.11" height="272.05"/>
		<rect x="177.36" y="0.91" class="st35" width="2.11" height="272.05"/>
		<rect x="179.46" y="0.91" class="st36" width="2.11" height="272.05"/>
		<rect x="181.57" y="0.91" class="st37" width="2.11" height="272.05"/>
		<rect x="183.67" y="0.91" class="st38" width="2.11" height="272.05"/>
		<rect x="185.78" y="0.91" class="st39" width="2.11" height="272.05"/>
		<rect x="187.89" y="0.91" class="st40" width="2.11" height="272.05"/>
		<rect x="189.99" y="0.91" class="st41" width="2.11" height="272.05"/>
		<rect x="192.1" y="0.91" class="st42" width="2.11" height="272.05"/>
		<rect x="194.21" y="0.91" class="st43" width="2.11" height="272.05"/>
		<rect x="196.31" y="0.91" class="st44" width="2.11" height="272.05"/>
		<rect x="198.42" y="0.91" class="st45" width="2.11" height="272.05"/>
		<rect x="200.52" y="0.91" class="st46" width="2.11" height="272.05"/>
		<rect x="202.63" y="0.91" class="st47" width="2.11" height="272.05"/>
		<rect x="204.74" y="0.91" class="st48" width="2.11" height="272.05"/>
		<rect x="206.84" y="0.91" class="st49" width="2.11" height="272.05"/>
		<rect x="208.95" y="0.91" class="st50" width="2.11" height="272.05"/>
		<rect x="211.05" y="0.91" class="st51" width="2.11" height="272.05"/>
		<rect x="213.16" y="0.91" class="st52" width="2.11" height="272.05"/>
		<rect x="215.27" y="0.91" class="st53" width="2.11" height="272.05"/>
		<rect x="217.37" y="0.91" class="st54" width="2.11" height="272.05"/>
		<rect x="219.48" y="0.91" class="st55" width="2.11" height="272.05"/>
		<rect x="221.59" y="0.91" class="st56" width="2.11" height="272.05"/>
		<rect x="223.69" y="0.91" class="st57" width="2.11" height="272.05"/>
		<rect x="225.8" y="0.91" class="st58" width="2.11" height="272.05"/>
		<rect x="227.9" y="0.91" class="st59" width="2.11" height="272.05"/>
		<rect x="230.01" y="0.91" class="st60" width="2.11" height="272.05"/>
		<rect x="232.12" y="0.91" class="st61" width="2.11" height="272.05"/>
		<rect x="234.22" y="0.91" class="st62" width="2.11" height="272.05"/>
		<rect x="236.33" y="0.91" class="st63" width="2.11" height="272.05"/>
		<path class="st63" d="M238.43,272.96V0.91V272.96z"/>
	</g>
</g>
<g>
	<g>
		<path class="st64" d="M125.51,255.89c-3.46,2-9.13,2-12.59,0l-93.58-54.03c-3.46-2-6.29-6.91-6.29-10.9V82.9
			c0-4,2.83-8.9,6.29-10.9l93.58-54.03c3.46-2,9.13-2,12.59,0L219.09,72c3.46,2,6.29,6.91,6.29,10.9v108.06c0,4-2.83,8.9-6.29,10.9
			L125.51,255.89z M17.28,188.52c0,4,2.83,8.9,6.29,10.9l89.35,51.59c3.46,2,9.13,2,12.59,0l89.35-51.59c3.46-2,6.29-6.9,6.29-10.9
			V85.34c0-4-2.83-8.9-6.29-10.9l-89.35-51.59c-3.46-2-9.13-2-12.59,0L23.57,74.44c-3.46,2-6.29,6.91-6.29,10.9V188.52z"/>
	</g>
	<g>
		<path class="st64" d="M119.22,257.69c-2.33,0-4.67-0.51-6.45-1.54l-93.58-54.03c-3.55-2.05-6.45-7.06-6.45-11.17V82.9
			c0-4.11,2.89-9.11,6.45-11.17l93.58-54.03c3.55-2.05,9.34-2.05,12.89,0l93.58,54.03c3.56,2.05,6.45,7.06,6.45,11.17v108.06
			c0,4.1-2.89,9.11-6.45,11.17l-93.58,54.03C123.89,257.18,121.55,257.69,119.22,257.69z M119.22,16.76c-2.23,0-4.45,0.49-6.14,1.47
			L19.49,72.26c-3.39,1.95-6.14,6.73-6.14,10.64v108.06c0,3.91,2.76,8.68,6.14,10.64l93.58,54.03c3.39,1.96,8.9,1.95,12.29,0
			l93.58-54.03c3.39-1.96,6.14-6.73,6.14-10.64V82.9c0-3.91-2.76-8.69-6.14-10.64l-93.58-54.03
			C123.67,17.25,121.44,16.76,119.22,16.76z M119.22,252.81c-2.33,0-4.67-0.51-6.45-1.54l-89.35-51.59
			c-3.56-2.05-6.45-7.06-6.45-11.17V85.34c0-4.1,2.89-9.11,6.45-11.17l89.35-51.59c3.55-2.05,9.34-2.05,12.89,0l89.35,51.59
			c3.55,2.05,6.45,7.06,6.45,11.17v103.18c0,4.11-2.89,9.11-6.45,11.17l-89.35,51.59C123.89,252.3,121.55,252.81,119.22,252.81z
			 M119.22,21.65c-2.23,0-4.45,0.49-6.14,1.47L23.72,74.7c-3.39,1.96-6.14,6.73-6.14,10.64v103.18c0,3.91,2.76,8.69,6.14,10.64
			l89.35,51.59c3.39,1.96,8.9,1.95,12.29,0l89.35-51.59c3.39-1.95,6.14-6.73,6.14-10.64V85.34c0-3.91-2.76-8.68-6.14-10.64
			l-89.35-51.59C123.67,22.14,121.44,21.65,119.22,21.65z"/>
	</g>
</g>
<g>
	<g>
		<path class="st64" d="M125.51,234.07c-3.46,2-9.13,2-12.59,0l-74.68-43.12c-3.46-2-6.29-6.91-6.29-10.9V93.82
			c0-4,2.83-8.9,6.29-10.9l74.68-43.12c3.46-2,9.13-2,12.59,0l74.68,43.12c3.46,2,6.29,6.91,6.29,10.9v86.23c0,4-2.83,8.9-6.29,10.9
			L125.51,234.07z M35.42,178.04c0,4,2.83,8.9,6.29,10.9l71.2,41.11c3.46,2,9.13,2,12.59,0l71.2-41.11c3.46-2,6.29-6.9,6.29-10.9
			V95.82c0-4-2.83-8.9-6.29-10.9l-71.2-41.11c-3.46-2-9.13-2-12.59,0l-71.2,41.11c-3.46,2-6.29,6.91-6.29,10.9V178.04z"/>
	</g>
	<g>
		<path class="st64" d="M119.22,237.15c-2.55,0-5.1-0.57-7.08-1.72l-74.68-43.12c-3.97-2.29-7.08-7.68-7.08-12.27V93.82
			c0-4.59,3.11-9.97,7.08-12.27l74.68-43.12c3.97-2.3,10.2-2.29,14.17,0l74.68,43.12c3.97,2.29,7.08,7.68,7.08,12.27v86.23
			c0,4.59-3.11,9.97-7.08,12.27l-74.68,43.12C124.31,236.58,121.77,237.15,119.22,237.15z M119.22,39.87
			c-2.01,0-4.01,0.43-5.51,1.29L39.03,84.28c-2.99,1.72-5.51,6.09-5.51,9.54v86.23c0,3.45,2.52,7.82,5.51,9.54l74.68,43.12
			c2.98,1.72,8.03,1.73,11.01,0l74.68-43.12c2.99-1.72,5.51-6.09,5.51-9.54V93.82c0-3.45-2.52-7.81-5.51-9.54l-74.68-43.12
			C123.23,40.3,121.22,39.87,119.22,39.87z M119.22,233.14c-2.55,0-5.1-0.57-7.08-1.72l-71.2-41.11c-3.97-2.29-7.08-7.68-7.08-12.27
			V95.82c0-4.59,3.11-9.97,7.08-12.27l71.2-41.11c3.97-2.3,10.2-2.29,14.17,0l71.2,41.11c3.97,2.29,7.08,7.68,7.08,12.27v82.22
			c0,4.59-3.11,9.98-7.08,12.27l-71.2,41.11C124.31,232.56,121.76,233.14,119.22,233.14z M119.22,43.88c-2.01,0-4.01,0.43-5.51,1.29
			l-71.2,41.11C39.52,88.01,37,92.38,37,95.82v82.22c0,3.45,2.52,7.82,5.51,9.54l71.2,41.11c2.99,1.72,8.03,1.72,11.01,0l71.2-41.11
			c2.99-1.72,5.51-6.09,5.51-9.54V95.82c0-3.45-2.52-7.81-5.51-9.54l-71.2-41.11C123.23,44.31,121.22,43.88,119.22,43.88z"/>
	</g>
</g>
<g>
	<g>
		<path class="st64" d="M183.44,145.25c0,0.01-3.27,0.01-7.27,0.01h-49.13c-4,0-7.27,0.51-7.27,1.14c0,0.62,3.27,1.14,7.27,1.14
			h49.13c4,0,7.27,3.27,7.27,7.27v11.94c0,4-2.83,8.9-6.29,10.9l-51.64,29.81c-3.46,2-9.13,2-12.59,0l-51.64-29.81
			c-3.46-2-6.29-6.9-6.29-10.9v-59.63c0-4,2.83-8.9,6.29-10.9l51.64-29.81c3.46-2,9.13-2,12.59,0l51.54,29.76
			c3.46,2,6.81,3.21,7.44,2.69c0.63-0.52-1.69-2.57-5.15-4.57l-53.83-30.97c-3.46-1.99-9.13-1.99-12.59,0.01l-54.3,31.35
			c-3.46,2-6.29,6.91-6.29,10.9v62.7c0,4,2.83,8.9,6.29,10.9l54.3,31.35c3.46,2,9.13,2,12.59,0l54.3-31.35
			c3.46-2,6.29-6.9,6.29-10.9v-15.77c0-4-0.6-7.27-1.33-7.27C184.04,145.24,183.44,145.25,183.44,145.25z"/>
	</g>
	<g>
		<path class="st64" d="M119.22,214.7c-2.74,0-5.49-0.62-7.63-1.85l-54.3-31.35c-4.28-2.47-7.63-8.27-7.63-13.21v-62.7
			c0-4.94,3.35-10.74,7.63-13.21l54.3-31.35c4.28-2.47,10.98-2.47,15.26-0.01l53.83,30.97c6.36,3.66,6.52,5.65,6.58,6.4
			c0.08,0.98-0.32,1.93-1.07,2.54c-0.7,0.58-2.57,2.11-10.46-2.45l-51.54-29.76c-2.65-1.53-7.28-1.53-9.93,0L62.62,98.52
			c-2.64,1.53-4.96,5.54-4.96,8.59v59.63c0,3.05,2.32,7.07,4.96,8.59l51.64,29.81c2.65,1.53,7.28,1.52,9.93,0l51.64-29.81
			c2.64-1.53,4.96-5.54,4.96-8.59V154.8c0-2.54-2.07-4.6-4.6-4.6h-49.13c-8.24,0-9.93-1.52-9.93-3.8c0-2.28,1.69-3.8,9.93-3.8h49.13
			c3.77,0,6.89,0,7.2-0.01v0.05c0.51-0.06,1.01-0.06,1.41-0.06c1.98,0,4,1.18,4,9.93v15.77c0,4.94-3.35,10.74-7.63,13.21
			l-54.3,31.35C124.7,214.08,121.96,214.7,119.22,214.7z"/>
	</g>
</g>
</svg>
