<svg id="Layer_1" data-name="Layer 1" xmlns="http://www.w3.org/2000/svg" xmlns:xlink="http://www.w3.org/1999/xlink" viewBox="0 0 238.43 270.7"><defs><style>.cls-1{fill:none;}.cls-2{fill:#fff;}.cls-3{fill:#535254;}.cls-4{clip-path:url(#clip-path);}.cls-5{fill:#5a585a;}.cls-6{fill:#595759;}.cls-7{fill:#585758;}.cls-8{fill:#585658;}.cls-9{fill:#575657;}.cls-10{fill:#565556;}.cls-11{fill:#565456;}.cls-12{fill:#555455;}.cls-13{fill:#545354;}.cls-14{fill:#535253;}.cls-15{fill:#525152;}.cls-16{fill:#515052;}.cls-17{fill:#514f51;}.cls-18{fill:#504f50;}.cls-19{fill:#4f4e50;}.cls-20{fill:#4e4d4f;}.cls-21{fill:#4e4d4e;}.cls-22{fill:#4d4c4d;}.cls-23{fill:#4c4b4d;}.cls-24{fill:#4c4a4c;}.cls-25{fill:#4b4a4b;}.cls-26{fill:#4a494a;}.cls-27{fill:#49484a;}.cls-28{fill:#484749;}.cls-29{fill:#484648;}.cls-30{fill:#474647;}.cls-31{fill:#464546;}.cls-32{fill:#454446;}.cls-33{fill:#454345;}.cls-34{fill:#444244;}.cls-35{fill:#434243;}.cls-36{fill:#424142;}.cls-37{fill:#414041;}.cls-38{fill:#403f41;}.cls-39{fill:#403e40;}.cls-40{fill:#3f3d3f;}.cls-41{fill:#3e3c3e;}.cls-42{fill:#3d3c3d;}.cls-43{fill:#3c3b3c;}.cls-44{fill:#3b3a3b;}.cls-45{fill:#3a393a;}.cls-46{fill:#393839;}.cls-47{fill:#383738;}.cls-48{fill:#373637;}.cls-49{fill:#363536;}.cls-50{fill:#353435;}.cls-51{fill:#343334;}.cls-52{fill:#333133;}.cls-53{fill:#323032;}.cls-54{fill:#312f30;}.cls-55{fill:#302e2f;}.cls-56{fill:#2f2d2e;}.cls-57{fill:#2e2c2d;}.cls-58{fill:#2d2a2c;}.cls-59{fill:#2c292a;}.cls-60{fill:#2b2829;}.cls-61{fill:#2a2728;}.cls-62{fill:#292627;}.cls-63{fill:#272425;}.cls-64{fill:#262324;}.cls-65{fill:#252223;}.cls-66{fill:#242121;}.cls-67{fill:#231f20;}.cls-68{fill:url(#linear-gradient);}.cls-69{clip-path:url(#clip-path-2);}.cls-70{fill:url(#linear-gradient-2);}.cls-71{clip-path:url(#clip-path-3);}.cls-72{fill:url(#linear-gradient-3);}.cls-73{clip-path:url(#clip-path-4);}.cls-74{fill:url(#linear-gradient-4);}.cls-75{clip-path:url(#clip-path-5);}.cls-76{fill:url(#linear-gradient-5);}.cls-77{clip-path:url(#clip-path-6);}.cls-78{fill:url(#linear-gradient-6);}</style><clipPath id="clip-path" transform="translate(0 -1)"><path class="cls-1" d="M125.45,254.11a13.81,13.81,0,0,1-12.46,0L20.35,200.63a13.84,13.84,0,0,1-6.24-10.8v-107a13.83,13.83,0,0,1,6.24-10.79L113,18.58a13.81,13.81,0,0,1,12.46,0l92.64,53.49a13.82,13.82,0,0,1,6.23,10.79v107a13.83,13.83,0,0,1-6.23,10.8ZM18.3,187.42a13.82,13.82,0,0,0,6.23,10.79L113,249.28a13.81,13.81,0,0,0,12.46,0l88.45-51.07a13.82,13.82,0,0,0,6.23-10.79V85.28a13.79,13.79,0,0,0-6.23-10.79L125.45,23.42a13.81,13.81,0,0,0-12.46,0L24.53,74.49A13.79,13.79,0,0,0,18.3,85.28Z"/></clipPath><linearGradient id="linear-gradient" x1="12.92" y1="136.35" x2="225.52" y2="136.35" gradientUnits="userSpaceOnUse"><stop offset="0" stop-color="#5a585a"/><stop offset="0.43" stop-color="#5a585a"/><stop offset="1"/></linearGradient><clipPath id="clip-path-2" transform="translate(0 -1)"><path class="cls-1" d="M119.22,255.9a13,13,0,0,1-6.39-1.53L20.19,200.89a14.15,14.15,0,0,1-6.38-11.06v-107a14.14,14.14,0,0,1,6.38-11l92.64-53.49a14.15,14.15,0,0,1,12.77,0l92.64,53.49a14.12,14.12,0,0,1,6.38,11v107a14.12,14.12,0,0,1-6.38,11.06L125.6,254.37A13,13,0,0,1,119.22,255.9Zm0-238.51a12.44,12.44,0,0,0-6.09,1.45L20.49,72.33a13.46,13.46,0,0,0-6.08,10.53v107a13.47,13.47,0,0,0,6.08,10.54l92.64,53.48a13.45,13.45,0,0,0,12.17,0l92.64-53.48A13.47,13.47,0,0,0,224,189.83v-107a13.46,13.46,0,0,0-6.08-10.53L125.3,18.84A12.42,12.42,0,0,0,119.22,17.39Zm0,233.67a13.15,13.15,0,0,1-6.39-1.52L24.38,198.47A14.12,14.12,0,0,1,18,187.42V85.28a14.12,14.12,0,0,1,6.38-11l88.45-51.07a14.15,14.15,0,0,1,12.77,0l88.45,51.07a14.12,14.12,0,0,1,6.38,11V187.42a14.12,14.12,0,0,1-6.38,11.05L125.6,249.54A13.11,13.11,0,0,1,119.22,251.06Zm0-228.83a12.44,12.44,0,0,0-6.09,1.45L24.68,74.75A13.46,13.46,0,0,0,18.6,85.28V187.42A13.47,13.47,0,0,0,24.68,198L113.13,249a13.51,13.51,0,0,0,12.17,0L213.75,198a13.45,13.45,0,0,0,6.08-10.53V85.28a13.43,13.43,0,0,0-6.08-10.53L125.3,23.68A12.42,12.42,0,0,0,119.22,22.23Z"/></clipPath><linearGradient id="linear-gradient-2" x1="12.62" y1="136.34" x2="225.82" y2="136.34" xlink:href="#linear-gradient"/><clipPath id="clip-path-3" transform="translate(0 -1)"><path class="cls-1" d="M125.45,232.51a13.81,13.81,0,0,1-12.46,0L39.06,189.82A13.79,13.79,0,0,1,32.83,179V93.67a13.83,13.83,0,0,1,6.23-10.8L113,40.19a13.81,13.81,0,0,1,12.46,0l73.93,42.68a13.83,13.83,0,0,1,6.23,10.8V179a13.82,13.82,0,0,1-6.23,10.79ZM36.27,177a13.83,13.83,0,0,0,6.23,10.8L113,228.53a13.81,13.81,0,0,0,12.46,0l70.49-40.69a13.85,13.85,0,0,0,6.23-10.8V95.65a13.84,13.84,0,0,0-6.23-10.79l-70.49-40.7a13.81,13.81,0,0,0-12.46,0L42.5,84.86a13.81,13.81,0,0,0-6.23,10.79Z"/></clipPath><linearGradient id="linear-gradient-3" x1="31.62" y1="136.35" x2="206.81" y2="136.35" xlink:href="#linear-gradient"/><clipPath id="clip-path-4" transform="translate(0 -1)"><path class="cls-1" d="M119.22,235.56a14.36,14.36,0,0,1-7-1.7L38.28,191.17a15.27,15.27,0,0,1-7-12.14V93.67a15.29,15.29,0,0,1,7-12.15L112.2,38.84a15.3,15.3,0,0,1,14,0l73.93,42.68a15.3,15.3,0,0,1,7,12.15V179a15.28,15.28,0,0,1-7,12.14l-73.93,42.69A14.35,14.35,0,0,1,119.22,235.56Zm0-195.3a11.26,11.26,0,0,0-5.46,1.28L39.84,84.22a12.26,12.26,0,0,0-5.46,9.45V179a12.24,12.24,0,0,0,5.46,9.44l73.92,42.69a12.27,12.27,0,0,0,10.91,0l73.93-42.69a12.25,12.25,0,0,0,5.45-9.44V93.67a12.27,12.27,0,0,0-5.45-9.45L124.67,41.54A11.25,11.25,0,0,0,119.22,40.26Zm0,191.33a14.25,14.25,0,0,1-7-1.71L41.72,189.19a15.3,15.3,0,0,1-7-12.15V95.65a15.28,15.28,0,0,1,7-12.14l70.48-40.7a15.3,15.3,0,0,1,14,0l70.49,40.7a15.28,15.28,0,0,1,7,12.14V177a15.3,15.3,0,0,1-7,12.15l-70.49,40.69A14.24,14.24,0,0,1,119.22,231.59Zm0-187.36a11.26,11.26,0,0,0-5.46,1.28L43.28,86.21a12.24,12.24,0,0,0-5.45,9.44V177a12.25,12.25,0,0,0,5.45,9.45l70.48,40.69a12.24,12.24,0,0,0,10.91,0l70.49-40.69a12.27,12.27,0,0,0,5.45-9.45V95.65a12.27,12.27,0,0,0-5.45-9.44l-70.49-40.7A11.25,11.25,0,0,0,119.22,44.23Z"/></clipPath><linearGradient id="linear-gradient-4" x1="30.06" y1="136.34" x2="208.37" y2="136.34" xlink:href="#linear-gradient"/><clipPath id="clip-path-5" transform="translate(0 -1)"><path class="cls-1" d="M182.8,144.59H127c-4,0-7.2.5-7.2,1.12s3.24,1.13,7.2,1.13H175.6a7.21,7.21,0,0,1,7.2,7.19v11.82a13.82,13.82,0,0,1-6.23,10.79l-51.12,29.52a13.81,13.81,0,0,1-12.46,0L61.87,176.65a13.79,13.79,0,0,1-6.23-10.79v-59A13.82,13.82,0,0,1,61.87,96L113,66.53a13.81,13.81,0,0,1,12.46,0l51,29.46c3.43,2,6.75,3.18,7.37,2.67s-1.67-2.55-5.1-4.52L125.45,63.47a13.84,13.84,0,0,0-12.46,0l-53.76,31A13.81,13.81,0,0,0,53,105.31v62.07a13.83,13.83,0,0,0,6.23,10.8l53.76,31a13.81,13.81,0,0,0,12.46,0l53.75-31a13.84,13.84,0,0,0,6.24-10.8V151.77c0-4-.6-7.2-1.32-7.2S182.8,144.58,182.8,144.59Z"/></clipPath><linearGradient id="linear-gradient-5" x1="51.8" y1="136.35" x2="186.64" y2="136.35" xlink:href="#linear-gradient"/><clipPath id="clip-path-6" transform="translate(0 -1)"><path class="cls-1" d="M119.22,213.33a15.37,15.37,0,0,1-7.55-1.83l-53.76-31a16.47,16.47,0,0,1-7.55-13.08V105.31a16.48,16.48,0,0,1,7.55-13.08l53.76-31a16.46,16.46,0,0,1,15.1,0l53.29,30.66c6.29,3.62,6.45,5.59,6.51,6.33a2.91,2.91,0,0,1-1,2.51c-.7.58-2.55,2.09-10.37-2.42l-51-29.46a11.23,11.23,0,0,0-9.83,0L63.19,98.33a11.2,11.2,0,0,0-4.92,8.5v59a11.22,11.22,0,0,0,4.92,8.51l51.11,29.51a11.23,11.23,0,0,0,9.83,0l51.12-29.51a11.24,11.24,0,0,0,4.91-8.51V154a4.57,4.57,0,0,0-4.56-4.56H127c-8.16,0-9.84-1.5-9.84-3.76S118.81,142,127,142h55.75V142a11.82,11.82,0,0,1,1.4-.06c1.84,0,3.95,1.11,3.95,9.83v15.61a16.44,16.44,0,0,1-7.55,13.08l-53.75,31A15.42,15.42,0,0,1,119.22,213.33Z"/></clipPath><linearGradient id="linear-gradient-6" x1="49.16" y1="136.35" x2="189.27" y2="136.35" xlink:href="#linear-gradient"/></defs><title>Graphene II</title><path class="cls-2" d="M231,208.08a13.82,13.82,0,0,0,6.24-10.79V75.41A13.84,13.84,0,0,0,231,64.61L125.45,3.67a13.81,13.81,0,0,0-12.46,0L7.43,64.61A13.83,13.83,0,0,0,1.2,75.41V197.29a13.81,13.81,0,0,0,6.23,10.79L113,269a13.87,13.87,0,0,0,12.46,0Z" transform="translate(0 -1)"/><path class="cls-3" d="M119.22,271.7a13.91,13.91,0,0,1-6.83-1.64L6.83,209.12A15.1,15.1,0,0,1,0,197.29V75.41A15.13,15.13,0,0,1,6.83,63.57L112.39,2.63a15.15,15.15,0,0,1,13.66,0L231.6,63.57a15.13,15.13,0,0,1,6.83,11.84V197.29a15.1,15.1,0,0,1-6.83,11.83L126.05,270.06A14,14,0,0,1,119.22,271.7Zm0-268.31a11.56,11.56,0,0,0-5.63,1.32L8,65.65A12.66,12.66,0,0,0,2.4,75.41V197.29A12.64,12.64,0,0,0,8,207l105.56,61a12.67,12.67,0,0,0,11.26,0l105.56-61a12.64,12.64,0,0,0,5.63-9.75V75.41a12.66,12.66,0,0,0-5.63-9.76L124.85,4.71A11.59,11.59,0,0,0,119.22,3.39Z" transform="translate(0 -1)"/><g class="cls-4"><rect class="cls-5" x="18.3" y="20.44" width="87.18" height="229.82"/><rect class="cls-5" x="105.49" y="20.44" width="1.86" height="229.82"/><rect class="cls-6" x="107.34" y="20.44" width="1.86" height="229.82"/><rect class="cls-7" x="109.2" y="20.44" width="1.86" height="229.82"/><rect class="cls-8" x="111.06" y="20.44" width="1.86" height="229.82"/><rect class="cls-9" x="112.91" y="20.44" width="1.86" height="229.82"/><rect class="cls-10" x="114.77" y="20.44" width="1.86" height="229.82"/><rect class="cls-11" x="116.63" y="20.44" width="1.86" height="229.82"/><rect class="cls-12" x="118.48" y="20.44" width="1.86" height="229.82"/><rect class="cls-13" x="120.34" y="20.44" width="1.86" height="229.82"/><rect class="cls-3" x="122.2" y="20.44" width="1.86" height="229.82"/><rect class="cls-14" x="124.05" y="20.44" width="1.86" height="229.82"/><rect class="cls-15" x="125.91" y="20.44" width="1.86" height="229.82"/><rect class="cls-16" x="127.77" y="20.44" width="1.86" height="229.82"/><rect class="cls-17" x="129.62" y="20.44" width="1.86" height="229.82"/><rect class="cls-18" x="131.48" y="20.44" width="1.86" height="229.82"/><rect class="cls-19" x="133.34" y="20.44" width="1.86" height="229.82"/><rect class="cls-20" x="135.19" y="20.44" width="1.86" height="229.82"/><rect class="cls-21" x="137.05" y="20.44" width="1.86" height="229.82"/><rect class="cls-22" x="138.91" y="20.44" width="1.86" height="229.82"/><rect class="cls-23" x="140.76" y="20.44" width="1.86" height="229.82"/><rect class="cls-24" x="142.62" y="20.44" width="1.86" height="229.82"/><rect class="cls-25" x="144.48" y="20.44" width="1.86" height="229.82"/><rect class="cls-26" x="146.33" y="20.44" width="1.86" height="229.82"/><rect class="cls-27" x="148.19" y="20.44" width="1.86" height="229.82"/><rect class="cls-28" x="150.05" y="20.44" width="1.86" height="229.82"/><rect class="cls-29" x="151.91" y="20.44" width="1.86" height="229.82"/><rect class="cls-30" x="153.76" y="20.44" width="1.86" height="229.82"/><rect class="cls-31" x="155.62" y="20.44" width="1.86" height="229.82"/><rect class="cls-32" x="157.48" y="20.44" width="1.86" height="229.82"/><rect class="cls-33" x="159.33" y="20.44" width="1.86" height="229.82"/><rect class="cls-34" x="161.19" y="20.44" width="1.86" height="229.82"/><rect class="cls-35" x="163.05" y="20.44" width="1.86" height="229.82"/><rect class="cls-36" x="164.9" y="20.44" width="1.86" height="229.82"/><rect class="cls-37" x="166.76" y="20.44" width="1.86" height="229.82"/><rect class="cls-38" x="168.62" y="20.44" width="1.86" height="229.82"/><rect class="cls-39" x="170.47" y="20.44" width="1.86" height="229.82"/><rect class="cls-40" x="172.33" y="20.44" width="1.86" height="229.82"/><rect class="cls-41" x="174.19" y="20.44" width="1.86" height="229.82"/><rect class="cls-42" x="176.04" y="20.44" width="1.86" height="229.82"/><rect class="cls-43" x="177.9" y="20.44" width="1.86" height="229.82"/><rect class="cls-44" x="179.76" y="20.44" width="1.86" height="229.82"/><rect class="cls-45" x="181.61" y="20.44" width="1.86" height="229.82"/><rect class="cls-46" x="183.47" y="20.44" width="1.86" height="229.82"/><rect class="cls-47" x="185.33" y="20.44" width="1.86" height="229.82"/><rect class="cls-48" x="187.18" y="20.44" width="1.86" height="229.82"/><rect class="cls-49" x="189.04" y="20.44" width="1.86" height="229.82"/><rect class="cls-50" x="190.9" y="20.44" width="1.86" height="229.82"/><rect class="cls-51" x="192.75" y="20.44" width="1.86" height="229.82"/><rect class="cls-52" x="194.61" y="20.44" width="1.86" height="229.82"/><rect class="cls-53" x="196.47" y="20.44" width="1.86" height="229.82"/><rect class="cls-54" x="198.33" y="20.44" width="1.86" height="229.82"/><rect class="cls-55" x="200.18" y="20.44" width="1.86" height="229.82"/><rect class="cls-56" x="202.04" y="20.44" width="1.86" height="229.82"/><rect class="cls-57" x="203.9" y="20.44" width="1.86" height="229.82"/><rect class="cls-58" x="205.75" y="20.44" width="1.86" height="229.82"/><rect class="cls-59" x="207.61" y="20.44" width="1.86" height="229.82"/><rect class="cls-60" x="209.47" y="20.44" width="1.86" height="229.82"/><rect class="cls-61" x="211.32" y="20.44" width="1.86" height="229.82"/><rect class="cls-62" x="213.18" y="20.44" width="1.86" height="229.82"/><rect class="cls-63" x="215.04" y="20.44" width="1.86" height="229.82"/><rect class="cls-64" x="216.89" y="20.44" width="1.86" height="229.82"/><rect class="cls-65" x="218.75" y="20.44" width="1.38" height="229.82"/><path class="cls-5" d="M14.11,16.6v0Z" transform="translate(0 -1)"/><path class="cls-5" d="M14.11,16.6v0Z" transform="translate(0 -1)"/><rect class="cls-5" x="14.11" y="15.6" width="91.37" height="239.49"/><rect class="cls-5" x="105.49" y="15.6" width="1.86" height="239.49"/><rect class="cls-6" x="107.34" y="15.6" width="1.86" height="239.49"/><rect class="cls-7" x="109.2" y="15.6" width="1.86" height="239.49"/><rect class="cls-8" x="111.06" y="15.6" width="1.86" height="239.49"/><rect class="cls-9" x="112.91" y="15.6" width="1.86" height="239.49"/><rect class="cls-10" x="114.77" y="15.6" width="1.86" height="239.49"/><rect class="cls-11" x="116.63" y="15.6" width="1.86" height="239.49"/><rect class="cls-12" x="118.48" y="15.6" width="1.86" height="239.49"/><rect class="cls-13" x="120.34" y="15.6" width="1.86" height="239.49"/><rect class="cls-3" x="122.2" y="15.6" width="1.86" height="239.49"/><rect class="cls-14" x="124.05" y="15.6" width="1.86" height="239.49"/><rect class="cls-15" x="125.91" y="15.6" width="1.86" height="239.49"/><rect class="cls-16" x="127.77" y="15.6" width="1.86" height="239.49"/><rect class="cls-17" x="129.62" y="15.6" width="1.86" height="239.49"/><rect class="cls-18" x="131.48" y="15.6" width="1.86" height="239.49"/><rect class="cls-19" x="133.34" y="15.6" width="1.86" height="239.49"/><rect class="cls-20" x="135.19" y="15.6" width="1.86" height="239.49"/><rect class="cls-21" x="137.05" y="15.6" width="1.86" height="239.49"/><rect class="cls-22" x="138.91" y="15.6" width="1.86" height="239.49"/><rect class="cls-23" x="140.76" y="15.6" width="1.86" height="239.49"/><rect class="cls-24" x="142.62" y="15.6" width="1.86" height="239.49"/><rect class="cls-25" x="144.48" y="15.6" width="1.86" height="239.49"/><rect class="cls-26" x="146.33" y="15.6" width="1.86" height="239.49"/><rect class="cls-27" x="148.19" y="15.6" width="1.86" height="239.49"/><rect class="cls-28" x="150.05" y="15.6" width="1.86" height="239.49"/><rect class="cls-29" x="151.91" y="15.6" width="1.86" height="239.49"/><rect class="cls-30" x="153.76" y="15.6" width="1.86" height="239.49"/><rect class="cls-31" x="155.62" y="15.6" width="1.86" height="239.49"/><rect class="cls-32" x="157.48" y="15.6" width="1.86" height="239.49"/><rect class="cls-33" x="159.33" y="15.6" width="1.86" height="239.49"/><rect class="cls-34" x="161.19" y="15.6" width="1.86" height="239.49"/><rect class="cls-35" x="163.05" y="15.6" width="1.86" height="239.49"/><rect class="cls-36" x="164.9" y="15.6" width="1.86" height="239.49"/><rect class="cls-37" x="166.76" y="15.6" width="1.86" height="239.49"/><rect class="cls-38" x="168.62" y="15.6" width="1.86" height="239.49"/><rect class="cls-39" x="170.47" y="15.6" width="1.86" height="239.49"/><rect class="cls-40" x="172.33" y="15.6" width="1.86" height="239.49"/><rect class="cls-41" x="174.19" y="15.6" width="1.86" height="239.49"/><rect class="cls-42" x="176.04" y="15.6" width="1.86" height="239.49"/><rect class="cls-43" x="177.9" y="15.6" width="1.86" height="239.49"/><rect class="cls-44" x="179.76" y="15.6" width="1.86" height="239.49"/><rect class="cls-45" x="181.61" y="15.6" width="1.86" height="239.49"/><rect class="cls-46" x="183.47" y="15.6" width="1.86" height="239.49"/><rect class="cls-47" x="185.33" y="15.6" width="1.86" height="239.49"/><rect class="cls-48" x="187.18" y="15.6" width="1.86" height="239.49"/><rect class="cls-49" x="189.04" y="15.6" width="1.86" height="239.49"/><rect class="cls-50" x="190.9" y="15.6" width="1.86" height="239.49"/><rect class="cls-51" x="192.75" y="15.6" width="1.86" height="239.49"/><rect class="cls-52" x="194.61" y="15.6" width="1.86" height="239.49"/><rect class="cls-53" x="196.47" y="15.6" width="1.86" height="239.49"/><rect class="cls-54" x="198.33" y="15.6" width="1.86" height="239.49"/><rect class="cls-55" x="200.18" y="15.6" width="1.86" height="239.49"/><rect class="cls-56" x="202.04" y="15.6" width="1.86" height="239.49"/><rect class="cls-57" x="203.9" y="15.6" width="1.86" height="239.49"/><rect class="cls-58" x="205.75" y="15.6" width="1.86" height="239.49"/><rect class="cls-59" x="207.61" y="15.6" width="1.86" height="239.49"/><rect class="cls-60" x="209.47" y="15.6" width="1.86" height="239.49"/><rect class="cls-61" x="211.32" y="15.6" width="1.86" height="239.49"/><rect class="cls-62" x="213.18" y="15.6" width="1.86" height="239.49"/><rect class="cls-63" x="215.04" y="15.6" width="1.86" height="239.49"/><rect class="cls-64" x="216.89" y="15.6" width="1.86" height="239.49"/><rect class="cls-65" x="218.75" y="15.6" width="1.86" height="239.49"/><rect class="cls-66" x="220.61" y="15.6" width="1.86" height="239.49"/><rect class="cls-67" x="222.46" y="15.6" width="1.86" height="239.49"/><path class="cls-67" d="M224.32,256.09v0Z" transform="translate(0 -1)"/></g><path class="cls-68" d="M119.22,256.81a13.91,13.91,0,0,1-6.84-1.66L19.75,201.67a15.13,15.13,0,0,1-6.83-11.84v-107A15.1,15.1,0,0,1,19.75,71l92.63-53.49a14.92,14.92,0,0,1,13.67,0L218.69,71a15.1,15.1,0,0,1,6.83,11.83v107a15.13,15.13,0,0,1-6.83,11.84l-92.64,53.48A13.9,13.9,0,0,1,119.22,256.81Zm0-238.51a11.6,11.6,0,0,0-5.64,1.32L20.94,73.11a12.66,12.66,0,0,0-5.63,9.75v107a12.66,12.66,0,0,0,5.63,9.76l92.64,53.48a12.62,12.62,0,0,0,11.27,0l92.64-53.48a12.66,12.66,0,0,0,5.63-9.76v-107a12.66,12.66,0,0,0-5.63-9.75L124.85,19.62A11.59,11.59,0,0,0,119.22,18.3Zm0,233.67a14,14,0,0,1-6.84-1.65L23.93,199.25a15.14,15.14,0,0,1-6.83-11.83V85.28a15.13,15.13,0,0,1,6.83-11.83l88.45-51.07a14.92,14.92,0,0,1,13.67,0L214.5,73.45a15.1,15.1,0,0,1,6.83,11.83V187.42a15.11,15.11,0,0,1-6.83,11.83l-88.45,51.07A14,14,0,0,1,119.22,252Zm0-228.84a11.64,11.64,0,0,0-5.64,1.33L25.13,75.52a12.69,12.69,0,0,0-5.63,9.76V187.42a12.66,12.66,0,0,0,5.63,9.75l88.45,51.07a12.69,12.69,0,0,0,11.27,0l88.45-51.07a12.64,12.64,0,0,0,5.64-9.75V85.28a12.68,12.68,0,0,0-5.64-9.76L124.85,24.46A11.6,11.6,0,0,0,119.22,23.13Z" transform="translate(0 -1)"/><g class="cls-69"><rect class="cls-5" x="18.6" y="21.23" width="86.85" height="228.73"/><rect class="cls-5" x="105.45" y="21.23" width="1.86" height="228.73"/><rect class="cls-6" x="107.31" y="21.23" width="1.86" height="228.73"/><rect class="cls-7" x="109.17" y="21.23" width="1.86" height="228.73"/><rect class="cls-8" x="111.03" y="21.23" width="1.86" height="228.73"/><rect class="cls-9" x="112.89" y="21.23" width="1.86" height="228.73"/><rect class="cls-10" x="114.76" y="21.23" width="1.86" height="228.73"/><rect class="cls-11" x="116.62" y="21.23" width="1.86" height="228.73"/><rect class="cls-12" x="118.48" y="21.23" width="1.86" height="228.73"/><rect class="cls-13" x="120.34" y="21.23" width="1.86" height="228.73"/><rect class="cls-3" x="122.2" y="21.23" width="1.86" height="228.73"/><rect class="cls-14" x="124.07" y="21.23" width="1.86" height="228.73"/><rect class="cls-15" x="125.93" y="21.23" width="1.86" height="228.73"/><rect class="cls-16" x="127.79" y="21.23" width="1.86" height="228.73"/><rect class="cls-17" x="129.65" y="21.23" width="1.86" height="228.73"/><rect class="cls-18" x="131.52" y="21.23" width="1.86" height="228.73"/><rect class="cls-19" x="133.38" y="21.23" width="1.86" height="228.73"/><rect class="cls-20" x="135.24" y="21.23" width="1.86" height="228.73"/><rect class="cls-21" x="137.1" y="21.23" width="1.86" height="228.73"/><rect class="cls-22" x="138.96" y="21.23" width="1.86" height="228.73"/><rect class="cls-23" x="140.83" y="21.23" width="1.86" height="228.73"/><rect class="cls-24" x="142.69" y="21.23" width="1.86" height="228.73"/><rect class="cls-25" x="144.55" y="21.23" width="1.86" height="228.73"/><rect class="cls-26" x="146.41" y="21.23" width="1.86" height="228.73"/><rect class="cls-27" x="148.27" y="21.23" width="1.86" height="228.73"/><rect class="cls-28" x="150.14" y="21.23" width="1.86" height="228.73"/><rect class="cls-29" x="152" y="21.23" width="1.86" height="228.73"/><rect class="cls-30" x="153.86" y="21.23" width="1.86" height="228.73"/><rect class="cls-31" x="155.72" y="21.23" width="1.86" height="228.73"/><rect class="cls-32" x="157.58" y="21.23" width="1.86" height="228.73"/><rect class="cls-33" x="159.45" y="21.23" width="1.86" height="228.73"/><rect class="cls-34" x="161.31" y="21.23" width="1.86" height="228.73"/><rect class="cls-35" x="163.17" y="21.23" width="1.86" height="228.73"/><rect class="cls-36" x="165.03" y="21.23" width="1.86" height="228.73"/><rect class="cls-37" x="166.9" y="21.23" width="1.86" height="228.73"/><rect class="cls-38" x="168.76" y="21.23" width="1.86" height="228.73"/><rect class="cls-39" x="170.62" y="21.23" width="1.86" height="228.73"/><rect class="cls-40" x="172.48" y="21.23" width="1.86" height="228.73"/><rect class="cls-41" x="174.34" y="21.23" width="1.86" height="228.73"/><rect class="cls-42" x="176.21" y="21.23" width="1.86" height="228.73"/><rect class="cls-43" x="178.07" y="21.23" width="1.86" height="228.73"/><rect class="cls-44" x="179.93" y="21.23" width="1.86" height="228.73"/><rect class="cls-45" x="181.79" y="21.23" width="1.86" height="228.73"/><rect class="cls-46" x="183.65" y="21.23" width="1.86" height="228.73"/><rect class="cls-47" x="185.52" y="21.23" width="1.86" height="228.73"/><rect class="cls-48" x="187.38" y="21.23" width="1.86" height="228.73"/><rect class="cls-49" x="189.24" y="21.23" width="1.86" height="228.73"/><rect class="cls-50" x="191.1" y="21.23" width="1.86" height="228.73"/><rect class="cls-51" x="192.96" y="21.23" width="1.86" height="228.73"/><rect class="cls-52" x="194.83" y="21.23" width="1.86" height="228.73"/><rect class="cls-53" x="196.69" y="21.23" width="1.86" height="228.73"/><rect class="cls-54" x="198.55" y="21.23" width="1.86" height="228.73"/><rect class="cls-55" x="200.41" y="21.23" width="1.86" height="228.73"/><rect class="cls-56" x="202.27" y="21.23" width="1.86" height="228.73"/><rect class="cls-57" x="204.14" y="21.23" width="1.86" height="228.73"/><rect class="cls-58" x="206" y="21.23" width="1.86" height="228.73"/><rect class="cls-59" x="207.86" y="21.23" width="1.86" height="228.73"/><rect class="cls-60" x="209.72" y="21.23" width="1.86" height="228.73"/><rect class="cls-61" x="211.59" y="21.23" width="1.86" height="228.73"/><rect class="cls-62" x="213.45" y="21.23" width="1.86" height="228.73"/><rect class="cls-63" x="215.31" y="21.23" width="1.86" height="228.73"/><rect class="cls-64" x="217.17" y="21.23" width="1.86" height="228.73"/><rect class="cls-65" x="219.03" y="21.23" width="0.8" height="228.73"/><rect class="cls-5" x="18" y="20.13" width="87.45" height="229.93"/><rect class="cls-5" x="105.45" y="20.13" width="1.86" height="229.93"/><rect class="cls-6" x="107.31" y="20.13" width="1.86" height="229.93"/><rect class="cls-7" x="109.17" y="20.13" width="1.86" height="229.93"/><rect class="cls-8" x="111.03" y="20.13" width="1.86" height="229.93"/><rect class="cls-9" x="112.89" y="20.13" width="1.86" height="229.93"/><rect class="cls-10" x="114.76" y="20.13" width="1.86" height="229.93"/><rect class="cls-11" x="116.62" y="20.13" width="1.86" height="229.93"/><rect class="cls-12" x="118.48" y="20.13" width="1.86" height="229.93"/><rect class="cls-13" x="120.34" y="20.13" width="1.86" height="229.93"/><rect class="cls-3" x="122.2" y="20.13" width="1.86" height="229.93"/><rect class="cls-14" x="124.07" y="20.13" width="1.86" height="229.93"/><rect class="cls-15" x="125.93" y="20.13" width="1.86" height="229.93"/><rect class="cls-16" x="127.79" y="20.13" width="1.86" height="229.93"/><rect class="cls-17" x="129.65" y="20.13" width="1.86" height="229.93"/><rect class="cls-18" x="131.52" y="20.13" width="1.86" height="229.93"/><rect class="cls-19" x="133.38" y="20.13" width="1.86" height="229.93"/><rect class="cls-20" x="135.24" y="20.13" width="1.86" height="229.93"/><rect class="cls-21" x="137.1" y="20.13" width="1.86" height="229.93"/><rect class="cls-22" x="138.96" y="20.13" width="1.86" height="229.93"/><rect class="cls-23" x="140.83" y="20.13" width="1.86" height="229.93"/><rect class="cls-24" x="142.69" y="20.13" width="1.86" height="229.93"/><rect class="cls-25" x="144.55" y="20.13" width="1.86" height="229.93"/><rect class="cls-26" x="146.41" y="20.13" width="1.86" height="229.93"/><rect class="cls-27" x="148.27" y="20.13" width="1.86" height="229.93"/><rect class="cls-28" x="150.14" y="20.13" width="1.86" height="229.93"/><rect class="cls-29" x="152" y="20.13" width="1.86" height="229.93"/><rect class="cls-30" x="153.86" y="20.13" width="1.86" height="229.93"/><rect class="cls-31" x="155.72" y="20.13" width="1.86" height="229.93"/><rect class="cls-32" x="157.58" y="20.13" width="1.86" height="229.93"/><rect class="cls-33" x="159.45" y="20.13" width="1.86" height="229.93"/><rect class="cls-34" x="161.31" y="20.13" width="1.86" height="229.93"/><rect class="cls-35" x="163.17" y="20.13" width="1.86" height="229.93"/><rect class="cls-36" x="165.03" y="20.13" width="1.86" height="229.93"/><rect class="cls-37" x="166.9" y="20.13" width="1.86" height="229.93"/><rect class="cls-38" x="168.76" y="20.13" width="1.86" height="229.93"/><rect class="cls-39" x="170.62" y="20.13" width="1.86" height="229.93"/><rect class="cls-40" x="172.48" y="20.13" width="1.86" height="229.93"/><rect class="cls-41" x="174.34" y="20.13" width="1.86" height="229.93"/><rect class="cls-42" x="176.21" y="20.13" width="1.86" height="229.93"/><rect class="cls-43" x="178.07" y="20.13" width="1.86" height="229.93"/><rect class="cls-44" x="179.93" y="20.13" width="1.86" height="229.93"/><rect class="cls-45" x="181.79" y="20.13" width="1.86" height="229.93"/><rect class="cls-46" x="183.65" y="20.13" width="1.86" height="229.93"/><rect class="cls-47" x="185.52" y="20.13" width="1.86" height="229.93"/><rect class="cls-48" x="187.38" y="20.13" width="1.86" height="229.93"/><rect class="cls-49" x="189.24" y="20.13" width="1.86" height="229.93"/><rect class="cls-50" x="191.1" y="20.13" width="1.86" height="229.93"/><rect class="cls-51" x="192.96" y="20.13" width="1.86" height="229.93"/><rect class="cls-52" x="194.83" y="20.13" width="1.86" height="229.93"/><rect class="cls-53" x="196.69" y="20.13" width="1.86" height="229.93"/><rect class="cls-54" x="198.55" y="20.13" width="1.86" height="229.93"/><rect class="cls-55" x="200.41" y="20.13" width="1.86" height="229.93"/><rect class="cls-56" x="202.27" y="20.13" width="1.86" height="229.93"/><rect class="cls-57" x="204.14" y="20.13" width="1.86" height="229.93"/><rect class="cls-58" x="206" y="20.13" width="1.86" height="229.93"/><rect class="cls-59" x="207.86" y="20.13" width="1.86" height="229.93"/><rect class="cls-60" x="209.72" y="20.13" width="1.86" height="229.93"/><rect class="cls-61" x="211.59" y="20.13" width="1.86" height="229.93"/><rect class="cls-62" x="213.45" y="20.13" width="1.86" height="229.93"/><rect class="cls-63" x="215.31" y="20.13" width="1.86" height="229.93"/><rect class="cls-64" x="217.17" y="20.13" width="1.86" height="229.93"/><rect class="cls-65" x="219.03" y="20.13" width="1.4" height="229.93"/><rect class="cls-5" x="14.41" y="16.39" width="91.03" height="238.4"/><rect class="cls-5" x="105.45" y="16.39" width="1.86" height="238.4"/><rect class="cls-6" x="107.31" y="16.39" width="1.86" height="238.4"/><rect class="cls-7" x="109.17" y="16.39" width="1.86" height="238.4"/><rect class="cls-8" x="111.03" y="16.39" width="1.86" height="238.4"/><rect class="cls-9" x="112.89" y="16.39" width="1.86" height="238.4"/><rect class="cls-10" x="114.76" y="16.39" width="1.86" height="238.4"/><rect class="cls-11" x="116.62" y="16.39" width="1.86" height="238.4"/><rect class="cls-12" x="118.48" y="16.39" width="1.86" height="238.4"/><rect class="cls-13" x="120.34" y="16.39" width="1.86" height="238.4"/><rect class="cls-3" x="122.2" y="16.39" width="1.86" height="238.4"/><rect class="cls-14" x="124.07" y="16.39" width="1.86" height="238.4"/><rect class="cls-15" x="125.93" y="16.39" width="1.86" height="238.4"/><rect class="cls-16" x="127.79" y="16.39" width="1.86" height="238.4"/><rect class="cls-17" x="129.65" y="16.39" width="1.86" height="238.4"/><rect class="cls-18" x="131.52" y="16.39" width="1.86" height="238.4"/><rect class="cls-19" x="133.38" y="16.39" width="1.86" height="238.4"/><rect class="cls-20" x="135.24" y="16.39" width="1.86" height="238.4"/><rect class="cls-21" x="137.1" y="16.39" width="1.86" height="238.4"/><rect class="cls-22" x="138.96" y="16.39" width="1.86" height="238.4"/><rect class="cls-23" x="140.83" y="16.39" width="1.86" height="238.4"/><rect class="cls-24" x="142.69" y="16.39" width="1.86" height="238.4"/><rect class="cls-25" x="144.55" y="16.39" width="1.86" height="238.4"/><rect class="cls-26" x="146.41" y="16.39" width="1.86" height="238.4"/><rect class="cls-27" x="148.27" y="16.39" width="1.86" height="238.4"/><rect class="cls-28" x="150.14" y="16.39" width="1.86" height="238.4"/><rect class="cls-29" x="152" y="16.39" width="1.86" height="238.4"/><rect class="cls-30" x="153.86" y="16.39" width="1.86" height="238.4"/><rect class="cls-31" x="155.72" y="16.39" width="1.86" height="238.4"/><rect class="cls-32" x="157.58" y="16.39" width="1.86" height="238.4"/><rect class="cls-33" x="159.45" y="16.39" width="1.86" height="238.4"/><rect class="cls-34" x="161.31" y="16.39" width="1.86" height="238.4"/><rect class="cls-35" x="163.17" y="16.39" width="1.86" height="238.4"/><rect class="cls-36" x="165.03" y="16.39" width="1.86" height="238.4"/><rect class="cls-37" x="166.9" y="16.39" width="1.86" height="238.4"/><rect class="cls-38" x="168.76" y="16.39" width="1.86" height="238.4"/><rect class="cls-39" x="170.62" y="16.39" width="1.86" height="238.4"/><rect class="cls-40" x="172.48" y="16.39" width="1.86" height="238.4"/><rect class="cls-41" x="174.34" y="16.39" width="1.86" height="238.4"/><rect class="cls-42" x="176.21" y="16.39" width="1.86" height="238.4"/><rect class="cls-43" x="178.07" y="16.39" width="1.86" height="238.4"/><rect class="cls-44" x="179.93" y="16.39" width="1.86" height="238.4"/><rect class="cls-45" x="181.79" y="16.39" width="1.86" height="238.4"/><rect class="cls-46" x="183.65" y="16.39" width="1.86" height="238.4"/><rect class="cls-47" x="185.52" y="16.39" width="1.86" height="238.4"/><rect class="cls-48" x="187.38" y="16.39" width="1.86" height="238.4"/><rect class="cls-49" x="189.24" y="16.39" width="1.86" height="238.4"/><rect class="cls-50" x="191.1" y="16.39" width="1.86" height="238.4"/><rect class="cls-51" x="192.96" y="16.39" width="1.86" height="238.4"/><rect class="cls-52" x="194.83" y="16.39" width="1.86" height="238.4"/><rect class="cls-53" x="196.69" y="16.39" width="1.86" height="238.4"/><rect class="cls-54" x="198.55" y="16.39" width="1.86" height="238.4"/><rect class="cls-55" x="200.41" y="16.39" width="1.86" height="238.4"/><rect class="cls-56" x="202.27" y="16.39" width="1.86" height="238.4"/><rect class="cls-57" x="204.14" y="16.39" width="1.86" height="238.4"/><rect class="cls-58" x="206" y="16.39" width="1.86" height="238.4"/><rect class="cls-59" x="207.86" y="16.39" width="1.86" height="238.4"/><rect class="cls-60" x="209.72" y="16.39" width="1.86" height="238.4"/><rect class="cls-61" x="211.59" y="16.39" width="1.86" height="238.4"/><rect class="cls-62" x="213.45" y="16.39" width="1.86" height="238.4"/><rect class="cls-63" x="215.31" y="16.39" width="1.86" height="238.4"/><rect class="cls-64" x="217.17" y="16.39" width="1.86" height="238.4"/><rect class="cls-65" x="219.03" y="16.39" width="1.86" height="238.4"/><rect class="cls-66" x="220.9" y="16.39" width="1.86" height="238.4"/><rect class="cls-67" x="222.76" y="16.39" width="1.26" height="238.4"/><path class="cls-5" d="M13.81,16.29v0Z" transform="translate(0 -1)"/><path class="cls-5" d="M13.81,16.29v0Z" transform="translate(0 -1)"/><rect class="cls-5" x="13.81" y="15.29" width="91.63" height="239.6"/><rect class="cls-5" x="105.45" y="15.29" width="1.86" height="239.6"/><rect class="cls-6" x="107.31" y="15.29" width="1.86" height="239.6"/><rect class="cls-7" x="109.17" y="15.29" width="1.86" height="239.6"/><rect class="cls-8" x="111.03" y="15.29" width="1.86" height="239.6"/><rect class="cls-9" x="112.89" y="15.29" width="1.86" height="239.6"/><rect class="cls-10" x="114.76" y="15.29" width="1.86" height="239.6"/><rect class="cls-11" x="116.62" y="15.29" width="1.86" height="239.6"/><rect class="cls-12" x="118.48" y="15.29" width="1.86" height="239.6"/><rect class="cls-13" x="120.34" y="15.29" width="1.86" height="239.6"/><rect class="cls-3" x="122.2" y="15.29" width="1.86" height="239.6"/><rect class="cls-14" x="124.07" y="15.29" width="1.86" height="239.6"/><rect class="cls-15" x="125.93" y="15.29" width="1.86" height="239.6"/><rect class="cls-16" x="127.79" y="15.29" width="1.86" height="239.6"/><rect class="cls-17" x="129.65" y="15.29" width="1.86" height="239.6"/><rect class="cls-18" x="131.52" y="15.29" width="1.86" height="239.6"/><rect class="cls-19" x="133.38" y="15.29" width="1.86" height="239.6"/><rect class="cls-20" x="135.24" y="15.29" width="1.86" height="239.6"/><rect class="cls-21" x="137.1" y="15.29" width="1.86" height="239.6"/><rect class="cls-22" x="138.96" y="15.29" width="1.86" height="239.6"/><rect class="cls-23" x="140.83" y="15.29" width="1.86" height="239.6"/><rect class="cls-24" x="142.69" y="15.29" width="1.86" height="239.6"/><rect class="cls-25" x="144.55" y="15.29" width="1.86" height="239.6"/><rect class="cls-26" x="146.41" y="15.29" width="1.86" height="239.6"/><rect class="cls-27" x="148.27" y="15.29" width="1.86" height="239.6"/><rect class="cls-28" x="150.14" y="15.29" width="1.86" height="239.6"/><rect class="cls-29" x="152" y="15.29" width="1.86" height="239.6"/><rect class="cls-30" x="153.86" y="15.29" width="1.86" height="239.6"/><rect class="cls-31" x="155.72" y="15.29" width="1.86" height="239.6"/><rect class="cls-32" x="157.58" y="15.29" width="1.86" height="239.6"/><rect class="cls-33" x="159.45" y="15.29" width="1.86" height="239.6"/><rect class="cls-34" x="161.31" y="15.29" width="1.86" height="239.6"/><rect class="cls-35" x="163.17" y="15.29" width="1.86" height="239.6"/><rect class="cls-36" x="165.03" y="15.29" width="1.86" height="239.6"/><rect class="cls-37" x="166.9" y="15.29" width="1.86" height="239.6"/><rect class="cls-38" x="168.76" y="15.29" width="1.86" height="239.6"/><rect class="cls-39" x="170.62" y="15.29" width="1.86" height="239.6"/><rect class="cls-40" x="172.48" y="15.29" width="1.86" height="239.6"/><rect class="cls-41" x="174.34" y="15.29" width="1.86" height="239.6"/><rect class="cls-42" x="176.21" y="15.29" width="1.86" height="239.6"/><rect class="cls-43" x="178.07" y="15.29" width="1.86" height="239.6"/><rect class="cls-44" x="179.93" y="15.29" width="1.86" height="239.6"/><rect class="cls-45" x="181.79" y="15.29" width="1.86" height="239.6"/><rect class="cls-46" x="183.65" y="15.29" width="1.86" height="239.6"/><rect class="cls-47" x="185.52" y="15.29" width="1.86" height="239.6"/><rect class="cls-48" x="187.38" y="15.29" width="1.86" height="239.6"/><rect class="cls-49" x="189.24" y="15.29" width="1.86" height="239.6"/><rect class="cls-50" x="191.1" y="15.29" width="1.86" height="239.6"/><rect class="cls-51" x="192.96" y="15.29" width="1.86" height="239.6"/><rect class="cls-52" x="194.83" y="15.29" width="1.86" height="239.6"/><rect class="cls-53" x="196.69" y="15.29" width="1.86" height="239.6"/><rect class="cls-54" x="198.55" y="15.29" width="1.86" height="239.6"/><rect class="cls-55" x="200.41" y="15.29" width="1.86" height="239.6"/><rect class="cls-56" x="202.27" y="15.29" width="1.86" height="239.6"/><rect class="cls-57" x="204.14" y="15.29" width="1.86" height="239.6"/><rect class="cls-58" x="206" y="15.29" width="1.86" height="239.6"/><rect class="cls-59" x="207.86" y="15.29" width="1.86" height="239.6"/><rect class="cls-60" x="209.72" y="15.29" width="1.86" height="239.6"/><rect class="cls-61" x="211.59" y="15.29" width="1.86" height="239.6"/><rect class="cls-62" x="213.45" y="15.29" width="1.86" height="239.6"/><rect class="cls-63" x="215.31" y="15.29" width="1.86" height="239.6"/><rect class="cls-64" x="217.17" y="15.29" width="1.86" height="239.6"/><rect class="cls-65" x="219.03" y="15.29" width="1.86" height="239.6"/><rect class="cls-66" x="220.9" y="15.29" width="1.86" height="239.6"/><rect class="cls-67" x="222.76" y="15.29" width="1.86" height="239.6"/><path class="cls-67" d="M224.62,255.9v0Z" transform="translate(0 -1)"/></g><path class="cls-70" d="M119.22,257.1a14.2,14.2,0,0,1-7-1.69L19.6,201.93a15.22,15.22,0,0,1-7-12.1v-107a15.21,15.21,0,0,1,7-12.09l92.63-53.49a15.24,15.24,0,0,1,14,0l92.64,53.49a15.23,15.23,0,0,1,7,12.09v107a15.25,15.25,0,0,1-7,12.1L126.2,255.41A14.14,14.14,0,0,1,119.22,257.1Zm0-238.51a11.22,11.22,0,0,0-5.49,1.29L21.09,73.37a12.31,12.31,0,0,0-5.48,9.49v107a12.34,12.34,0,0,0,5.48,9.5l92.64,53.48a12.31,12.31,0,0,0,11,0l92.64-53.48a12.34,12.34,0,0,0,5.48-9.5v-107a12.31,12.31,0,0,0-5.48-9.49L124.7,19.88A11.32,11.32,0,0,0,119.22,18.59Zm0,233.67a14.28,14.28,0,0,1-7-1.68L23.78,199.51a15.23,15.23,0,0,1-7-12.09V85.28a15.23,15.23,0,0,1,7-12.09l88.45-51.07a15.24,15.24,0,0,1,14,0l88.45,51.07a15.21,15.21,0,0,1,7,12.09V187.42a15.21,15.21,0,0,1-7,12.09L126.2,250.58A14.24,14.24,0,0,1,119.22,252.26Zm0-228.84a11.12,11.12,0,0,0-5.49,1.3L25.28,75.78a12.34,12.34,0,0,0-5.48,9.5V187.42a12.31,12.31,0,0,0,5.48,9.49L113.73,248a12.34,12.34,0,0,0,11,0l88.45-51.07a12.32,12.32,0,0,0,5.49-9.49V85.28a12.35,12.35,0,0,0-5.49-9.5L124.7,24.72A11.32,11.32,0,0,0,119.22,23.42Z" transform="translate(0 -1)"/><g class="cls-71"><rect class="cls-5" x="36.27" y="41.18" width="71.66" height="188.33"/><rect class="cls-5" x="107.93" y="41.18" width="1.53" height="188.33"/><rect class="cls-6" x="109.46" y="41.18" width="1.53" height="188.33"/><rect class="cls-7" x="110.98" y="41.18" width="1.53" height="188.33"/><rect class="cls-8" x="112.51" y="41.18" width="1.53" height="188.33"/><rect class="cls-9" x="114.03" y="41.18" width="1.53" height="188.33"/><rect class="cls-10" x="115.56" y="41.18" width="1.53" height="188.33"/><rect class="cls-11" x="117.09" y="41.18" width="1.53" height="188.33"/><rect class="cls-12" x="118.61" y="41.18" width="1.53" height="188.33"/><rect class="cls-13" x="120.14" y="41.18" width="1.53" height="188.33"/><rect class="cls-3" x="121.67" y="41.18" width="1.53" height="188.33"/><rect class="cls-14" x="123.19" y="41.18" width="1.53" height="188.33"/><rect class="cls-15" x="124.72" y="41.18" width="1.53" height="188.33"/><rect class="cls-16" x="126.24" y="41.18" width="1.53" height="188.33"/><rect class="cls-17" x="127.77" y="41.18" width="1.53" height="188.33"/><rect class="cls-18" x="129.3" y="41.18" width="1.53" height="188.33"/><rect class="cls-19" x="130.82" y="41.18" width="1.53" height="188.33"/><rect class="cls-20" x="132.35" y="41.18" width="1.53" height="188.33"/><rect class="cls-21" x="133.88" y="41.18" width="1.53" height="188.33"/><rect class="cls-22" x="135.4" y="41.18" width="1.53" height="188.33"/><rect class="cls-23" x="136.93" y="41.18" width="1.53" height="188.33"/><rect class="cls-24" x="138.45" y="41.18" width="1.53" height="188.33"/><rect class="cls-25" x="139.98" y="41.18" width="1.53" height="188.33"/><rect class="cls-26" x="141.51" y="41.18" width="1.53" height="188.33"/><rect class="cls-27" x="143.03" y="41.18" width="1.53" height="188.33"/><rect class="cls-28" x="144.56" y="41.18" width="1.53" height="188.33"/><rect class="cls-29" x="146.09" y="41.18" width="1.53" height="188.33"/><rect class="cls-30" x="147.61" y="41.18" width="1.53" height="188.33"/><rect class="cls-31" x="149.14" y="41.18" width="1.53" height="188.33"/><rect class="cls-32" x="150.66" y="41.18" width="1.53" height="188.33"/><rect class="cls-33" x="152.19" y="41.18" width="1.53" height="188.33"/><rect class="cls-34" x="153.72" y="41.18" width="1.53" height="188.33"/><rect class="cls-35" x="155.24" y="41.18" width="1.53" height="188.33"/><rect class="cls-36" x="156.77" y="41.18" width="1.53" height="188.33"/><rect class="cls-37" x="158.3" y="41.18" width="1.53" height="188.33"/><rect class="cls-38" x="159.82" y="41.18" width="1.53" height="188.33"/><rect class="cls-39" x="161.35" y="41.18" width="1.53" height="188.33"/><rect class="cls-40" x="162.87" y="41.18" width="1.53" height="188.33"/><rect class="cls-41" x="164.4" y="41.18" width="1.53" height="188.33"/><rect class="cls-42" x="165.93" y="41.18" width="1.53" height="188.33"/><rect class="cls-43" x="167.45" y="41.18" width="1.53" height="188.33"/><rect class="cls-44" x="168.98" y="41.18" width="1.53" height="188.33"/><rect class="cls-45" x="170.51" y="41.18" width="1.53" height="188.33"/><rect class="cls-46" x="172.03" y="41.18" width="1.53" height="188.33"/><rect class="cls-47" x="173.56" y="41.18" width="1.53" height="188.33"/><rect class="cls-48" x="175.08" y="41.18" width="1.53" height="188.33"/><rect class="cls-49" x="176.61" y="41.18" width="1.53" height="188.33"/><rect class="cls-50" x="178.14" y="41.18" width="1.53" height="188.33"/><rect class="cls-51" x="179.66" y="41.18" width="1.53" height="188.33"/><rect class="cls-52" x="181.19" y="41.18" width="1.53" height="188.33"/><rect class="cls-53" x="182.72" y="41.18" width="1.53" height="188.33"/><rect class="cls-54" x="184.24" y="41.18" width="1.53" height="188.33"/><rect class="cls-55" x="185.77" y="41.18" width="1.53" height="188.33"/><rect class="cls-56" x="187.29" y="41.18" width="1.53" height="188.33"/><rect class="cls-57" x="188.82" y="41.18" width="1.53" height="188.33"/><rect class="cls-58" x="190.35" y="41.18" width="1.53" height="188.33"/><rect class="cls-59" x="191.87" y="41.18" width="1.53" height="188.33"/><rect class="cls-60" x="193.4" y="41.18" width="1.53" height="188.33"/><rect class="cls-61" x="194.93" y="41.18" width="1.53" height="188.33"/><rect class="cls-62" x="196.45" y="41.18" width="1.53" height="188.33"/><rect class="cls-63" x="197.98" y="41.18" width="1.53" height="188.33"/><rect class="cls-64" x="199.5" y="41.18" width="1.53" height="188.33"/><rect class="cls-65" x="201.03" y="41.18" width="1.14" height="188.33"/><path class="cls-5" d="M32.83,38.21v0Z" transform="translate(0 -1)"/><path class="cls-5" d="M32.83,38.21v0Z" transform="translate(0 -1)"/><rect class="cls-5" x="32.83" y="37.21" width="75.1" height="196.28"/><rect class="cls-5" x="107.93" y="37.21" width="1.53" height="196.28"/><rect class="cls-6" x="109.46" y="37.21" width="1.53" height="196.28"/><rect class="cls-7" x="110.98" y="37.21" width="1.53" height="196.28"/><rect class="cls-8" x="112.51" y="37.21" width="1.53" height="196.28"/><rect class="cls-9" x="114.03" y="37.21" width="1.53" height="196.28"/><rect class="cls-10" x="115.56" y="37.21" width="1.53" height="196.28"/><rect class="cls-11" x="117.09" y="37.21" width="1.53" height="196.28"/><rect class="cls-12" x="118.61" y="37.21" width="1.53" height="196.28"/><rect class="cls-13" x="120.14" y="37.21" width="1.53" height="196.28"/><rect class="cls-3" x="121.67" y="37.21" width="1.53" height="196.28"/><rect class="cls-14" x="123.19" y="37.21" width="1.53" height="196.28"/><rect class="cls-15" x="124.72" y="37.21" width="1.53" height="196.28"/><rect class="cls-16" x="126.24" y="37.21" width="1.53" height="196.28"/><rect class="cls-17" x="127.77" y="37.21" width="1.53" height="196.28"/><rect class="cls-18" x="129.3" y="37.21" width="1.53" height="196.28"/><rect class="cls-19" x="130.82" y="37.21" width="1.53" height="196.28"/><rect class="cls-20" x="132.35" y="37.21" width="1.53" height="196.28"/><rect class="cls-21" x="133.88" y="37.21" width="1.53" height="196.28"/><rect class="cls-22" x="135.4" y="37.21" width="1.53" height="196.28"/><rect class="cls-23" x="136.93" y="37.21" width="1.53" height="196.28"/><rect class="cls-24" x="138.45" y="37.21" width="1.53" height="196.28"/><rect class="cls-25" x="139.98" y="37.21" width="1.53" height="196.28"/><rect class="cls-26" x="141.51" y="37.21" width="1.53" height="196.28"/><rect class="cls-27" x="143.03" y="37.21" width="1.53" height="196.28"/><rect class="cls-28" x="144.56" y="37.21" width="1.53" height="196.28"/><rect class="cls-29" x="146.09" y="37.21" width="1.53" height="196.28"/><rect class="cls-30" x="147.61" y="37.21" width="1.53" height="196.28"/><rect class="cls-31" x="149.14" y="37.21" width="1.53" height="196.28"/><rect class="cls-32" x="150.66" y="37.21" width="1.53" height="196.28"/><rect class="cls-33" x="152.19" y="37.21" width="1.53" height="196.28"/><rect class="cls-34" x="153.72" y="37.21" width="1.53" height="196.28"/><rect class="cls-35" x="155.24" y="37.21" width="1.53" height="196.28"/><rect class="cls-36" x="156.77" y="37.21" width="1.53" height="196.28"/><rect class="cls-37" x="158.3" y="37.21" width="1.53" height="196.28"/><rect class="cls-38" x="159.82" y="37.21" width="1.53" height="196.28"/><rect class="cls-39" x="161.35" y="37.21" width="1.53" height="196.28"/><rect class="cls-40" x="162.87" y="37.21" width="1.53" height="196.28"/><rect class="cls-41" x="164.4" y="37.21" width="1.53" height="196.28"/><rect class="cls-42" x="165.93" y="37.21" width="1.53" height="196.28"/><rect class="cls-43" x="167.45" y="37.21" width="1.53" height="196.28"/><rect class="cls-44" x="168.98" y="37.21" width="1.53" height="196.28"/><rect class="cls-45" x="170.51" y="37.21" width="1.53" height="196.28"/><rect class="cls-46" x="172.03" y="37.21" width="1.53" height="196.28"/><rect class="cls-47" x="173.56" y="37.21" width="1.53" height="196.28"/><rect class="cls-48" x="175.08" y="37.21" width="1.53" height="196.28"/><rect class="cls-49" x="176.61" y="37.21" width="1.53" height="196.28"/><rect class="cls-50" x="178.14" y="37.21" width="1.53" height="196.28"/><rect class="cls-51" x="179.66" y="37.21" width="1.53" height="196.28"/><rect class="cls-52" x="181.19" y="37.21" width="1.53" height="196.28"/><rect class="cls-53" x="182.72" y="37.21" width="1.53" height="196.28"/><rect class="cls-54" x="184.24" y="37.21" width="1.53" height="196.28"/><rect class="cls-55" x="185.77" y="37.21" width="1.53" height="196.28"/><rect class="cls-56" x="187.29" y="37.21" width="1.53" height="196.28"/><rect class="cls-57" x="188.82" y="37.21" width="1.53" height="196.28"/><rect class="cls-58" x="190.35" y="37.21" width="1.53" height="196.28"/><rect class="cls-59" x="191.87" y="37.21" width="1.53" height="196.28"/><rect class="cls-60" x="193.4" y="37.21" width="1.53" height="196.28"/><rect class="cls-61" x="194.93" y="37.21" width="1.53" height="196.28"/><rect class="cls-62" x="196.45" y="37.21" width="1.53" height="196.28"/><rect class="cls-63" x="197.98" y="37.21" width="1.53" height="196.28"/><rect class="cls-64" x="199.5" y="37.21" width="1.53" height="196.28"/><rect class="cls-65" x="201.03" y="37.21" width="1.53" height="196.28"/><rect class="cls-66" x="202.56" y="37.21" width="1.53" height="196.28"/><rect class="cls-67" x="204.08" y="37.21" width="1.53" height="196.28"/><path class="cls-67" d="M205.61,234.49v0Z" transform="translate(0 -1)"/></g><path class="cls-72" d="M119.22,235.2a14,14,0,0,1-6.84-1.65L38.46,190.86A15.11,15.11,0,0,1,31.62,179V93.67a15.14,15.14,0,0,1,6.84-11.84l73.92-42.68a14.92,14.92,0,0,1,13.67,0L200,81.83a15.16,15.16,0,0,1,6.83,11.84V179A15.13,15.13,0,0,1,200,190.86l-73.93,42.69A14,14,0,0,1,119.22,235.2Zm0-195.29a11.6,11.6,0,0,0-5.64,1.32L39.66,83.91A12.64,12.64,0,0,0,34,93.67V179a12.63,12.63,0,0,0,5.64,9.75l73.92,42.69a12.69,12.69,0,0,0,11.27,0l73.93-42.69a12.64,12.64,0,0,0,5.63-9.75V93.67a12.66,12.66,0,0,0-5.63-9.76L124.85,41.23A11.59,11.59,0,0,0,119.22,39.91Zm0,191.32a13.91,13.91,0,0,1-6.84-1.66L41.9,188.88A15.13,15.13,0,0,1,35.07,177V95.65A15.11,15.11,0,0,1,41.9,83.82l70.48-40.7a14.92,14.92,0,0,1,13.67,0l70.49,40.7a15.14,15.14,0,0,1,6.83,11.83V177a15.16,15.16,0,0,1-6.83,11.84l-70.49,40.69A13.9,13.9,0,0,1,119.22,231.23Zm0-187.35a11.6,11.6,0,0,0-5.64,1.32L43.1,85.9a12.66,12.66,0,0,0-5.63,9.75V177a12.66,12.66,0,0,0,5.63,9.76l70.48,40.69a12.66,12.66,0,0,0,11.27,0l70.49-40.69A12.66,12.66,0,0,0,201,177V95.65a12.66,12.66,0,0,0-5.63-9.75L124.85,45.2A11.59,11.59,0,0,0,119.22,43.88Z" transform="translate(0 -1)"/><g class="cls-73"><rect class="cls-5" x="37.83" y="43.23" width="69.9" height="184.66"/><rect class="cls-5" x="107.72" y="43.23" width="1.55" height="184.66"/><rect class="cls-6" x="109.28" y="43.23" width="1.55" height="184.66"/><rect class="cls-7" x="110.83" y="43.23" width="1.55" height="184.66"/><rect class="cls-8" x="112.39" y="43.23" width="1.55" height="184.66"/><rect class="cls-9" x="113.94" y="43.23" width="1.55" height="184.66"/><rect class="cls-10" x="115.49" y="43.23" width="1.55" height="184.66"/><rect class="cls-11" x="117.05" y="43.23" width="1.55" height="184.66"/><rect class="cls-12" x="118.6" y="43.23" width="1.55" height="184.66"/><rect class="cls-13" x="120.16" y="43.23" width="1.55" height="184.66"/><rect class="cls-3" x="121.71" y="43.23" width="1.55" height="184.66"/><rect class="cls-14" x="123.26" y="43.23" width="1.55" height="184.66"/><rect class="cls-15" x="124.82" y="43.23" width="1.55" height="184.66"/><rect class="cls-16" x="126.37" y="43.23" width="1.55" height="184.66"/><rect class="cls-17" x="127.92" y="43.23" width="1.55" height="184.66"/><rect class="cls-18" x="129.48" y="43.23" width="1.55" height="184.66"/><rect class="cls-19" x="131.03" y="43.23" width="1.55" height="184.66"/><rect class="cls-20" x="132.59" y="43.23" width="1.55" height="184.66"/><rect class="cls-21" x="134.14" y="43.23" width="1.55" height="184.66"/><rect class="cls-22" x="135.69" y="43.23" width="1.55" height="184.66"/><rect class="cls-23" x="137.25" y="43.23" width="1.55" height="184.66"/><rect class="cls-24" x="138.8" y="43.23" width="1.55" height="184.66"/><rect class="cls-25" x="140.35" y="43.23" width="1.55" height="184.66"/><rect class="cls-26" x="141.91" y="43.23" width="1.55" height="184.66"/><rect class="cls-27" x="143.46" y="43.23" width="1.55" height="184.66"/><rect class="cls-28" x="145.02" y="43.23" width="1.55" height="184.66"/><rect class="cls-29" x="146.57" y="43.23" width="1.55" height="184.66"/><rect class="cls-30" x="148.12" y="43.23" width="1.55" height="184.66"/><rect class="cls-31" x="149.68" y="43.23" width="1.55" height="184.66"/><rect class="cls-32" x="151.23" y="43.23" width="1.55" height="184.66"/><rect class="cls-33" x="152.78" y="43.23" width="1.55" height="184.66"/><rect class="cls-34" x="154.34" y="43.23" width="1.55" height="184.66"/><rect class="cls-35" x="155.89" y="43.23" width="1.55" height="184.66"/><rect class="cls-36" x="157.45" y="43.23" width="1.55" height="184.66"/><rect class="cls-37" x="159" y="43.23" width="1.55" height="184.66"/><rect class="cls-38" x="160.55" y="43.23" width="1.55" height="184.66"/><rect class="cls-39" x="162.11" y="43.23" width="1.55" height="184.66"/><rect class="cls-40" x="163.66" y="43.23" width="1.55" height="184.66"/><rect class="cls-41" x="165.22" y="43.23" width="1.55" height="184.66"/><rect class="cls-42" x="166.77" y="43.23" width="1.55" height="184.66"/><rect class="cls-43" x="168.32" y="43.23" width="1.55" height="184.66"/><rect class="cls-44" x="169.88" y="43.23" width="1.55" height="184.66"/><rect class="cls-45" x="171.43" y="43.23" width="1.55" height="184.66"/><rect class="cls-46" x="172.98" y="43.23" width="1.55" height="184.66"/><rect class="cls-47" x="174.54" y="43.23" width="1.55" height="184.66"/><rect class="cls-48" x="176.09" y="43.23" width="1.55" height="184.66"/><rect class="cls-49" x="177.65" y="43.23" width="1.55" height="184.66"/><rect class="cls-50" x="179.2" y="43.23" width="1.55" height="184.66"/><rect class="cls-51" x="180.75" y="43.23" width="1.55" height="184.66"/><rect class="cls-52" x="182.31" y="43.23" width="1.55" height="184.66"/><rect class="cls-53" x="183.86" y="43.23" width="1.55" height="184.66"/><rect class="cls-54" x="185.41" y="43.23" width="1.55" height="184.66"/><rect class="cls-55" x="186.97" y="43.23" width="1.55" height="184.66"/><rect class="cls-56" x="188.52" y="43.23" width="1.55" height="184.66"/><rect class="cls-57" x="190.08" y="43.23" width="1.55" height="184.66"/><rect class="cls-58" x="191.63" y="43.23" width="1.55" height="184.66"/><rect class="cls-59" x="193.18" y="43.23" width="1.55" height="184.66"/><rect class="cls-60" x="194.74" y="43.23" width="1.55" height="184.66"/><rect class="cls-61" x="196.29" y="43.23" width="1.55" height="184.66"/><rect class="cls-62" x="197.85" y="43.23" width="1.55" height="184.66"/><rect class="cls-63" x="199.4" y="43.23" width="1.21" height="184.66"/><rect class="cls-5" x="34.71" y="39.54" width="73.02" height="191.04"/><rect class="cls-5" x="107.72" y="39.54" width="1.55" height="191.04"/><rect class="cls-6" x="109.28" y="39.54" width="1.55" height="191.04"/><rect class="cls-7" x="110.83" y="39.54" width="1.55" height="191.04"/><rect class="cls-8" x="112.39" y="39.54" width="1.55" height="191.04"/><rect class="cls-9" x="113.94" y="39.54" width="1.55" height="191.04"/><rect class="cls-10" x="115.49" y="39.54" width="1.55" height="191.04"/><rect class="cls-11" x="117.05" y="39.54" width="1.55" height="191.04"/><rect class="cls-12" x="118.6" y="39.54" width="1.55" height="191.04"/><rect class="cls-13" x="120.16" y="39.54" width="1.55" height="191.04"/><rect class="cls-3" x="121.71" y="39.54" width="1.55" height="191.04"/><rect class="cls-14" x="123.26" y="39.54" width="1.55" height="191.04"/><rect class="cls-15" x="124.82" y="39.54" width="1.55" height="191.04"/><rect class="cls-16" x="126.37" y="39.54" width="1.55" height="191.04"/><rect class="cls-17" x="127.92" y="39.54" width="1.55" height="191.04"/><rect class="cls-18" x="129.48" y="39.54" width="1.55" height="191.04"/><rect class="cls-19" x="131.03" y="39.54" width="1.55" height="191.04"/><rect class="cls-20" x="132.59" y="39.54" width="1.55" height="191.04"/><rect class="cls-21" x="134.14" y="39.54" width="1.55" height="191.04"/><rect class="cls-22" x="135.69" y="39.54" width="1.55" height="191.04"/><rect class="cls-23" x="137.25" y="39.54" width="1.55" height="191.04"/><rect class="cls-24" x="138.8" y="39.54" width="1.55" height="191.04"/><rect class="cls-25" x="140.35" y="39.54" width="1.55" height="191.04"/><rect class="cls-26" x="141.91" y="39.54" width="1.55" height="191.04"/><rect class="cls-27" x="143.46" y="39.54" width="1.55" height="191.04"/><rect class="cls-28" x="145.02" y="39.54" width="1.55" height="191.04"/><rect class="cls-29" x="146.57" y="39.54" width="1.55" height="191.04"/><rect class="cls-30" x="148.12" y="39.54" width="1.55" height="191.04"/><rect class="cls-31" x="149.68" y="39.54" width="1.55" height="191.04"/><rect class="cls-32" x="151.23" y="39.54" width="1.55" height="191.04"/><rect class="cls-33" x="152.78" y="39.54" width="1.55" height="191.04"/><rect class="cls-34" x="154.34" y="39.54" width="1.55" height="191.04"/><rect class="cls-35" x="155.89" y="39.54" width="1.55" height="191.04"/><rect class="cls-36" x="157.45" y="39.54" width="1.55" height="191.04"/><rect class="cls-37" x="159" y="39.54" width="1.55" height="191.04"/><rect class="cls-38" x="160.55" y="39.54" width="1.55" height="191.04"/><rect class="cls-39" x="162.11" y="39.54" width="1.55" height="191.04"/><rect class="cls-40" x="163.66" y="39.54" width="1.55" height="191.04"/><rect class="cls-41" x="165.22" y="39.54" width="1.55" height="191.04"/><rect class="cls-42" x="166.77" y="39.54" width="1.55" height="191.04"/><rect class="cls-43" x="168.32" y="39.54" width="1.55" height="191.04"/><rect class="cls-44" x="169.88" y="39.54" width="1.55" height="191.04"/><rect class="cls-45" x="171.43" y="39.54" width="1.55" height="191.04"/><rect class="cls-46" x="172.98" y="39.54" width="1.55" height="191.04"/><rect class="cls-47" x="174.54" y="39.54" width="1.55" height="191.04"/><rect class="cls-48" x="176.09" y="39.54" width="1.55" height="191.04"/><rect class="cls-49" x="177.65" y="39.54" width="1.55" height="191.04"/><rect class="cls-50" x="179.2" y="39.54" width="1.55" height="191.04"/><rect class="cls-51" x="180.75" y="39.54" width="1.55" height="191.04"/><rect class="cls-52" x="182.31" y="39.54" width="1.55" height="191.04"/><rect class="cls-53" x="183.86" y="39.54" width="1.55" height="191.04"/><rect class="cls-54" x="185.41" y="39.54" width="1.55" height="191.04"/><rect class="cls-55" x="186.97" y="39.54" width="1.55" height="191.04"/><rect class="cls-56" x="188.52" y="39.54" width="1.55" height="191.04"/><rect class="cls-57" x="190.08" y="39.54" width="1.55" height="191.04"/><rect class="cls-58" x="191.63" y="39.54" width="1.55" height="191.04"/><rect class="cls-59" x="193.18" y="39.54" width="1.55" height="191.04"/><rect class="cls-60" x="194.74" y="39.54" width="1.55" height="191.04"/><rect class="cls-61" x="196.29" y="39.54" width="1.55" height="191.04"/><rect class="cls-62" x="197.85" y="39.54" width="1.55" height="191.04"/><rect class="cls-63" x="199.4" y="39.54" width="1.55" height="191.04"/><rect class="cls-64" x="200.95" y="39.54" width="1.55" height="191.04"/><rect class="cls-65" x="202.51" y="39.54" width="1.22" height="191.04"/><rect class="cls-5" x="34.38" y="39.26" width="73.34" height="192.61"/><rect class="cls-5" x="107.72" y="39.26" width="1.55" height="192.61"/><rect class="cls-6" x="109.28" y="39.26" width="1.55" height="192.61"/><rect class="cls-7" x="110.83" y="39.26" width="1.55" height="192.61"/><rect class="cls-8" x="112.39" y="39.26" width="1.55" height="192.61"/><rect class="cls-9" x="113.94" y="39.26" width="1.55" height="192.61"/><rect class="cls-10" x="115.49" y="39.26" width="1.55" height="192.61"/><rect class="cls-11" x="117.05" y="39.26" width="1.55" height="192.61"/><rect class="cls-12" x="118.6" y="39.26" width="1.55" height="192.61"/><rect class="cls-13" x="120.16" y="39.26" width="1.55" height="192.61"/><rect class="cls-3" x="121.71" y="39.26" width="1.55" height="192.61"/><rect class="cls-14" x="123.26" y="39.26" width="1.55" height="192.61"/><rect class="cls-15" x="124.82" y="39.26" width="1.55" height="192.61"/><rect class="cls-16" x="126.37" y="39.26" width="1.55" height="192.61"/><rect class="cls-17" x="127.92" y="39.26" width="1.55" height="192.61"/><rect class="cls-18" x="129.48" y="39.26" width="1.55" height="192.61"/><rect class="cls-19" x="131.03" y="39.26" width="1.55" height="192.61"/><rect class="cls-20" x="132.59" y="39.26" width="1.55" height="192.61"/><rect class="cls-21" x="134.14" y="39.26" width="1.55" height="192.61"/><rect class="cls-22" x="135.69" y="39.26" width="1.55" height="192.61"/><rect class="cls-23" x="137.25" y="39.26" width="1.55" height="192.61"/><rect class="cls-24" x="138.8" y="39.26" width="1.55" height="192.61"/><rect class="cls-25" x="140.35" y="39.26" width="1.55" height="192.61"/><rect class="cls-26" x="141.91" y="39.26" width="1.55" height="192.61"/><rect class="cls-27" x="143.46" y="39.26" width="1.55" height="192.61"/><rect class="cls-28" x="145.02" y="39.26" width="1.55" height="192.61"/><rect class="cls-29" x="146.57" y="39.26" width="1.55" height="192.61"/><rect class="cls-30" x="148.12" y="39.26" width="1.55" height="192.61"/><rect class="cls-31" x="149.68" y="39.26" width="1.55" height="192.61"/><rect class="cls-32" x="151.23" y="39.26" width="1.55" height="192.61"/><rect class="cls-33" x="152.78" y="39.26" width="1.55" height="192.61"/><rect class="cls-34" x="154.34" y="39.26" width="1.55" height="192.61"/><rect class="cls-35" x="155.89" y="39.26" width="1.55" height="192.61"/><rect class="cls-36" x="157.45" y="39.26" width="1.55" height="192.61"/><rect class="cls-37" x="159" y="39.26" width="1.55" height="192.61"/><rect class="cls-38" x="160.55" y="39.26" width="1.55" height="192.61"/><rect class="cls-39" x="162.11" y="39.26" width="1.55" height="192.61"/><rect class="cls-40" x="163.66" y="39.26" width="1.55" height="192.61"/><rect class="cls-41" x="165.22" y="39.26" width="1.55" height="192.61"/><rect class="cls-42" x="166.77" y="39.26" width="1.55" height="192.61"/><rect class="cls-43" x="168.32" y="39.26" width="1.55" height="192.61"/><rect class="cls-44" x="169.88" y="39.26" width="1.55" height="192.61"/><rect class="cls-45" x="171.43" y="39.26" width="1.55" height="192.61"/><rect class="cls-46" x="172.98" y="39.26" width="1.55" height="192.61"/><rect class="cls-47" x="174.54" y="39.26" width="1.55" height="192.61"/><rect class="cls-48" x="176.09" y="39.26" width="1.55" height="192.61"/><rect class="cls-49" x="177.65" y="39.26" width="1.55" height="192.61"/><rect class="cls-50" x="179.2" y="39.26" width="1.55" height="192.61"/><rect class="cls-51" x="180.75" y="39.26" width="1.55" height="192.61"/><rect class="cls-52" x="182.31" y="39.26" width="1.55" height="192.61"/><rect class="cls-53" x="183.86" y="39.26" width="1.55" height="192.61"/><rect class="cls-54" x="185.41" y="39.26" width="1.55" height="192.61"/><rect class="cls-55" x="186.97" y="39.26" width="1.55" height="192.61"/><rect class="cls-56" x="188.52" y="39.26" width="1.55" height="192.61"/><rect class="cls-57" x="190.08" y="39.26" width="1.55" height="192.61"/><rect class="cls-58" x="191.63" y="39.26" width="1.55" height="192.61"/><rect class="cls-59" x="193.18" y="39.26" width="1.55" height="192.61"/><rect class="cls-60" x="194.74" y="39.26" width="1.55" height="192.61"/><rect class="cls-61" x="196.29" y="39.26" width="1.55" height="192.61"/><rect class="cls-62" x="197.85" y="39.26" width="1.55" height="192.61"/><rect class="cls-63" x="199.4" y="39.26" width="1.55" height="192.61"/><rect class="cls-64" x="200.95" y="39.26" width="1.55" height="192.61"/><rect class="cls-65" x="202.51" y="39.26" width="1.54" height="192.61"/><path class="cls-5" d="M31.26,36.57v0Z" transform="translate(0 -1)"/><path class="cls-5" d="M31.26,36.57v0Z" transform="translate(0 -1)"/><rect class="cls-5" x="31.26" y="35.57" width="76.46" height="198.99"/><rect class="cls-5" x="107.72" y="35.57" width="1.55" height="198.99"/><rect class="cls-6" x="109.28" y="35.57" width="1.55" height="198.99"/><rect class="cls-7" x="110.83" y="35.57" width="1.55" height="198.99"/><rect class="cls-8" x="112.39" y="35.57" width="1.55" height="198.99"/><rect class="cls-9" x="113.94" y="35.57" width="1.55" height="198.99"/><rect class="cls-10" x="115.49" y="35.57" width="1.55" height="198.99"/><rect class="cls-11" x="117.05" y="35.57" width="1.55" height="198.99"/><rect class="cls-12" x="118.6" y="35.57" width="1.55" height="198.99"/><rect class="cls-13" x="120.16" y="35.57" width="1.55" height="198.99"/><rect class="cls-3" x="121.71" y="35.57" width="1.55" height="198.99"/><rect class="cls-14" x="123.26" y="35.57" width="1.55" height="198.99"/><rect class="cls-15" x="124.82" y="35.57" width="1.55" height="198.99"/><rect class="cls-16" x="126.37" y="35.57" width="1.55" height="198.99"/><rect class="cls-17" x="127.92" y="35.57" width="1.55" height="198.99"/><rect class="cls-18" x="129.48" y="35.57" width="1.55" height="198.99"/><rect class="cls-19" x="131.03" y="35.57" width="1.55" height="198.99"/><rect class="cls-20" x="132.59" y="35.57" width="1.55" height="198.99"/><rect class="cls-21" x="134.14" y="35.57" width="1.55" height="198.99"/><rect class="cls-22" x="135.69" y="35.57" width="1.55" height="198.99"/><rect class="cls-23" x="137.25" y="35.57" width="1.55" height="198.99"/><rect class="cls-24" x="138.8" y="35.57" width="1.55" height="198.99"/><rect class="cls-25" x="140.35" y="35.57" width="1.55" height="198.99"/><rect class="cls-26" x="141.91" y="35.57" width="1.55" height="198.99"/><rect class="cls-27" x="143.46" y="35.57" width="1.55" height="198.99"/><rect class="cls-28" x="145.02" y="35.57" width="1.55" height="198.99"/><rect class="cls-29" x="146.57" y="35.57" width="1.55" height="198.99"/><rect class="cls-30" x="148.12" y="35.57" width="1.55" height="198.99"/><rect class="cls-31" x="149.68" y="35.57" width="1.55" height="198.99"/><rect class="cls-32" x="151.23" y="35.57" width="1.55" height="198.99"/><rect class="cls-33" x="152.78" y="35.57" width="1.55" height="198.99"/><rect class="cls-34" x="154.34" y="35.57" width="1.55" height="198.99"/><rect class="cls-35" x="155.89" y="35.57" width="1.55" height="198.99"/><rect class="cls-36" x="157.45" y="35.57" width="1.55" height="198.99"/><rect class="cls-37" x="159" y="35.57" width="1.55" height="198.99"/><rect class="cls-38" x="160.55" y="35.57" width="1.55" height="198.99"/><rect class="cls-39" x="162.11" y="35.57" width="1.55" height="198.99"/><rect class="cls-40" x="163.66" y="35.57" width="1.55" height="198.99"/><rect class="cls-41" x="165.22" y="35.57" width="1.55" height="198.99"/><rect class="cls-42" x="166.77" y="35.57" width="1.55" height="198.99"/><rect class="cls-43" x="168.32" y="35.57" width="1.55" height="198.99"/><rect class="cls-44" x="169.88" y="35.57" width="1.55" height="198.99"/><rect class="cls-45" x="171.43" y="35.57" width="1.55" height="198.99"/><rect class="cls-46" x="172.98" y="35.57" width="1.55" height="198.99"/><rect class="cls-47" x="174.54" y="35.57" width="1.55" height="198.99"/><rect class="cls-48" x="176.09" y="35.57" width="1.55" height="198.99"/><rect class="cls-49" x="177.65" y="35.57" width="1.55" height="198.99"/><rect class="cls-50" x="179.2" y="35.57" width="1.55" height="198.99"/><rect class="cls-51" x="180.75" y="35.57" width="1.55" height="198.99"/><rect class="cls-52" x="182.31" y="35.57" width="1.55" height="198.99"/><rect class="cls-53" x="183.86" y="35.57" width="1.55" height="198.99"/><rect class="cls-54" x="185.41" y="35.57" width="1.55" height="198.99"/><rect class="cls-55" x="186.97" y="35.57" width="1.55" height="198.99"/><rect class="cls-56" x="188.52" y="35.57" width="1.55" height="198.99"/><rect class="cls-57" x="190.08" y="35.57" width="1.55" height="198.99"/><rect class="cls-58" x="191.63" y="35.57" width="1.55" height="198.99"/><rect class="cls-59" x="193.18" y="35.57" width="1.55" height="198.99"/><rect class="cls-60" x="194.74" y="35.57" width="1.55" height="198.99"/><rect class="cls-61" x="196.29" y="35.57" width="1.55" height="198.99"/><rect class="cls-62" x="197.85" y="35.57" width="1.55" height="198.99"/><rect class="cls-63" x="199.4" y="35.57" width="1.55" height="198.99"/><rect class="cls-64" x="200.95" y="35.57" width="1.55" height="198.99"/><rect class="cls-65" x="202.51" y="35.57" width="1.55" height="198.99"/><rect class="cls-66" x="204.06" y="35.57" width="1.55" height="198.99"/><rect class="cls-67" x="205.61" y="35.57" width="1.55" height="198.99"/><path class="cls-67" d="M207.17,235.56v0Z" transform="translate(0 -1)"/></g><path class="cls-74" d="M119.22,236.76a15.52,15.52,0,0,1-7.62-1.86L37.68,192.21A16.59,16.59,0,0,1,30.06,179V93.67a16.62,16.62,0,0,1,7.62-13.19L111.6,37.8a16.4,16.4,0,0,1,15.23,0l73.93,42.68a16.64,16.64,0,0,1,7.61,13.19V179a16.6,16.6,0,0,1-7.61,13.18L126.83,234.9A15.48,15.48,0,0,1,119.22,236.76Zm0-198.41a13.16,13.16,0,0,0-6.42,1.53L38.88,82.56a14.18,14.18,0,0,0-6.42,11.11V179a14.18,14.18,0,0,0,6.42,11.1l73.92,42.69a14.53,14.53,0,0,0,12.83,0l73.93-42.69A14.2,14.2,0,0,0,206,179V93.67a14.2,14.2,0,0,0-6.41-11.11L125.63,39.88A13.12,13.12,0,0,0,119.22,38.35Zm0,195.29a12.41,12.41,0,0,1-6-1.44L39.24,189.51A13.39,13.39,0,0,1,33.18,179V93.67a13.41,13.41,0,0,1,6.06-10.49L113.16,40.5a13.84,13.84,0,0,1,12.11,0L199.2,83.18a13.42,13.42,0,0,1,6.05,10.49V179a13.39,13.39,0,0,1-6.05,10.48L125.27,232.2A12.42,12.42,0,0,1,119.21,233.64Zm0-191.32a13.16,13.16,0,0,0-6.42,1.53L42.32,84.55a14.17,14.17,0,0,0-6.41,11.1V177a14.17,14.17,0,0,0,6.41,11.11l70.48,40.69a14.53,14.53,0,0,0,12.83,0l70.49-40.69A14.2,14.2,0,0,0,202.53,177V95.65a14.2,14.2,0,0,0-6.41-11.1l-70.49-40.7A13.12,13.12,0,0,0,119.22,42.32Zm0,187.35a12.46,12.46,0,0,1-6.06-1.45L42.68,187.53a13.39,13.39,0,0,1-6-10.49V95.65a13.39,13.39,0,0,1,6-10.48l70.48-40.7a13.87,13.87,0,0,1,12.11,0l70.49,40.69a13.42,13.42,0,0,1,6.05,10.48V177a13.42,13.42,0,0,1-6.05,10.49l-70.49,40.69A12.42,12.42,0,0,1,119.22,229.67Zm0-184.24a10.09,10.09,0,0,0-4.86,1.12L43.88,87.25A11.06,11.06,0,0,0,39,95.65V177a11.06,11.06,0,0,0,4.85,8.41l70.48,40.69a11,11,0,0,0,9.71,0l70.49-40.69a11.09,11.09,0,0,0,4.85-8.41V95.65a11.08,11.08,0,0,0-4.85-8.4l-70.49-40.7A10,10,0,0,0,119.22,45.43Z" transform="translate(0 -1)"/><g class="cls-75"><path class="cls-5" d="M53,61.5v0Z" transform="translate(0 -1)"/><path class="cls-5" d="M53,61.5v0Z" transform="translate(0 -1)"/><rect class="cls-5" x="53" y="60.5" width="57.57" height="149.69"/><rect class="cls-5" x="110.57" y="60.5" width="1.17" height="149.69"/><rect class="cls-6" x="111.74" y="60.5" width="1.17" height="149.69"/><rect class="cls-7" x="112.91" y="60.5" width="1.17" height="149.69"/><rect class="cls-8" x="114.07" y="60.5" width="1.17" height="149.69"/><rect class="cls-9" x="115.24" y="60.5" width="1.17" height="149.69"/><rect class="cls-10" x="116.41" y="60.5" width="1.17" height="149.69"/><rect class="cls-11" x="117.58" y="60.5" width="1.17" height="149.69"/><rect class="cls-12" x="118.75" y="60.5" width="1.17" height="149.69"/><rect class="cls-13" x="119.92" y="60.5" width="1.17" height="149.69"/><rect class="cls-3" x="121.09" y="60.5" width="1.17" height="149.69"/><rect class="cls-14" x="122.26" y="60.5" width="1.17" height="149.69"/><rect class="cls-15" x="123.43" y="60.5" width="1.17" height="149.69"/><rect class="cls-16" x="124.6" y="60.5" width="1.17" height="149.69"/><rect class="cls-17" x="125.77" y="60.5" width="1.17" height="149.69"/><rect class="cls-18" x="126.94" y="60.5" width="1.17" height="149.69"/><rect class="cls-19" x="128.11" y="60.5" width="1.17" height="149.69"/><rect class="cls-20" x="129.28" y="60.5" width="1.17" height="149.69"/><rect class="cls-21" x="130.45" y="60.5" width="1.17" height="149.69"/><rect class="cls-22" x="131.62" y="60.5" width="1.17" height="149.69"/><rect class="cls-23" x="132.79" y="60.5" width="1.17" height="149.69"/><rect class="cls-24" x="133.96" y="60.5" width="1.17" height="149.69"/><rect class="cls-25" x="135.13" y="60.5" width="1.17" height="149.69"/><rect class="cls-26" x="136.3" y="60.5" width="1.17" height="149.69"/><rect class="cls-27" x="137.47" y="60.5" width="1.17" height="149.69"/><rect class="cls-28" x="138.64" y="60.5" width="1.17" height="149.69"/><rect class="cls-29" x="139.81" y="60.5" width="1.17" height="149.69"/><rect class="cls-30" x="140.98" y="60.5" width="1.17" height="149.69"/><rect class="cls-31" x="142.15" y="60.5" width="1.17" height="149.69"/><rect class="cls-32" x="143.32" y="60.5" width="1.17" height="149.69"/><rect class="cls-33" x="144.49" y="60.5" width="1.17" height="149.69"/><rect class="cls-34" x="145.66" y="60.5" width="1.17" height="149.69"/><rect class="cls-35" x="146.83" y="60.5" width="1.17" height="149.69"/><rect class="cls-36" x="148" y="60.5" width="1.17" height="149.69"/><rect class="cls-37" x="149.17" y="60.5" width="1.17" height="149.69"/><rect class="cls-38" x="150.34" y="60.5" width="1.17" height="149.69"/><rect class="cls-39" x="151.51" y="60.5" width="1.17" height="149.69"/><rect class="cls-40" x="152.68" y="60.5" width="1.17" height="149.69"/><rect class="cls-41" x="153.85" y="60.5" width="1.17" height="149.69"/><rect class="cls-42" x="155.02" y="60.5" width="1.17" height="149.69"/><rect class="cls-43" x="156.19" y="60.5" width="1.17" height="149.69"/><rect class="cls-44" x="157.36" y="60.5" width="1.17" height="149.69"/><rect class="cls-45" x="158.53" y="60.5" width="1.17" height="149.69"/><rect class="cls-46" x="159.7" y="60.5" width="1.17" height="149.69"/><rect class="cls-47" x="160.87" y="60.5" width="1.17" height="149.69"/><rect class="cls-48" x="162.04" y="60.5" width="1.17" height="149.69"/><rect class="cls-49" x="163.21" y="60.5" width="1.17" height="149.69"/><rect class="cls-50" x="164.38" y="60.5" width="1.17" height="149.69"/><rect class="cls-51" x="165.55" y="60.5" width="1.17" height="149.69"/><rect class="cls-52" x="166.72" y="60.5" width="1.17" height="149.69"/><rect class="cls-53" x="167.89" y="60.5" width="1.17" height="149.69"/><rect class="cls-54" x="169.06" y="60.5" width="1.17" height="149.69"/><rect class="cls-55" x="170.23" y="60.5" width="1.17" height="149.69"/><rect class="cls-56" x="171.4" y="60.5" width="1.17" height="149.69"/><rect class="cls-57" x="172.57" y="60.5" width="1.17" height="149.69"/><rect class="cls-58" x="173.74" y="60.5" width="1.17" height="149.69"/><rect class="cls-59" x="174.91" y="60.5" width="1.17" height="149.69"/><rect class="cls-60" x="176.08" y="60.5" width="1.17" height="149.69"/><rect class="cls-61" x="177.25" y="60.5" width="1.17" height="149.69"/><rect class="cls-62" x="178.42" y="60.5" width="1.17" height="149.69"/><rect class="cls-63" x="179.59" y="60.5" width="1.17" height="149.69"/><rect class="cls-64" x="180.76" y="60.5" width="1.17" height="149.69"/><rect class="cls-65" x="181.93" y="60.5" width="1.17" height="149.69"/><rect class="cls-66" x="183.1" y="60.5" width="1.17" height="149.69"/><rect class="cls-67" x="184.27" y="60.5" width="1.17" height="149.69"/><path class="cls-67" d="M185.44,211.19v0Z" transform="translate(0 -1)"/></g><path class="cls-76" d="M119.22,211.91a13.91,13.91,0,0,1-6.84-1.66l-53.75-31a15.13,15.13,0,0,1-6.83-11.84V105.31a14.9,14.9,0,0,1,6.83-11.83l53.75-31a15,15,0,0,1,13.67,0L179.34,93.1c2.1,1.21,5.66,3.5,5.8,5.2a1.48,1.48,0,0,1-.54,1.28C183,100.9,178,98.23,175.87,97l-51-29.46a12.66,12.66,0,0,0-11.27,0L62.47,97.08a12.64,12.64,0,0,0-5.64,9.75v59a12.66,12.66,0,0,0,5.64,9.76l51.11,29.51a12.69,12.69,0,0,0,11.27,0L176,175.62a12.68,12.68,0,0,0,5.63-9.76V154a6,6,0,0,0-6-6H127c-8.4,0-8.4-1.62-8.4-2.32s0-2.32,8.4-2.32h55.78v0c.37,0,.83,0,1.37,0,1.67,0,2.52,2.82,2.52,8.39v15.61a15.14,15.14,0,0,1-6.84,11.84l-53.75,31A13.9,13.9,0,0,1,119.22,211.91Zm0-148.71a11.64,11.64,0,0,0-5.65,1.32l-53.75,31a12.66,12.66,0,0,0-5.63,9.75v62.07a12.66,12.66,0,0,0,5.63,9.76l53.75,31a12.62,12.62,0,0,0,11.27,0l53.75-31a12.64,12.64,0,0,0,5.64-9.76V151.77a21.05,21.05,0,0,0-.65-6h-.72v-.12c-.92.12-2.61.13-5.68.14A8.4,8.4,0,0,1,184,154v11.82a15.13,15.13,0,0,1-6.83,11.83l-51.12,29.52a14.92,14.92,0,0,1-13.67,0L61.27,177.69a15.1,15.1,0,0,1-6.83-11.83v-59A15.13,15.13,0,0,1,61.27,95l51.11-29.51a14.92,14.92,0,0,1,13.67,0l51,29.46a34.63,34.63,0,0,0,3.49,1.76,28.6,28.6,0,0,0-2.42-1.53L124.86,64.51A11.59,11.59,0,0,0,119.23,63.2Z" transform="translate(0 -1)"/><g class="cls-77"><path class="cls-5" d="M50.36,58.75v0Z" transform="translate(0 -1)"/><path class="cls-5" d="M50.36,58.75v0Z" transform="translate(0 -1)"/><rect class="cls-5" x="50.36" y="57.75" width="59.86" height="154.58"/><rect class="cls-5" x="110.22" y="57.75" width="1.22" height="154.58"/><rect class="cls-6" x="111.44" y="57.75" width="1.22" height="154.58"/><rect class="cls-7" x="112.65" y="57.75" width="1.22" height="154.58"/><rect class="cls-8" x="113.87" y="57.75" width="1.22" height="154.58"/><rect class="cls-9" x="115.09" y="57.75" width="1.22" height="154.58"/><rect class="cls-10" x="116.3" y="57.75" width="1.22" height="154.58"/><rect class="cls-11" x="117.52" y="57.75" width="1.22" height="154.58"/><rect class="cls-12" x="118.74" y="57.75" width="1.22" height="154.58"/><rect class="cls-13" x="119.95" y="57.75" width="1.22" height="154.58"/><rect class="cls-3" x="121.17" y="57.75" width="1.22" height="154.58"/><rect class="cls-14" x="122.39" y="57.75" width="1.22" height="154.58"/><rect class="cls-15" x="123.6" y="57.75" width="1.22" height="154.58"/><rect class="cls-16" x="124.82" y="57.75" width="1.22" height="154.58"/><rect class="cls-17" x="126.03" y="57.75" width="1.22" height="154.58"/><rect class="cls-18" x="127.25" y="57.75" width="1.22" height="154.58"/><rect class="cls-19" x="128.47" y="57.75" width="1.22" height="154.58"/><rect class="cls-20" x="129.68" y="57.75" width="1.22" height="154.58"/><rect class="cls-21" x="130.9" y="57.75" width="1.22" height="154.58"/><rect class="cls-22" x="132.12" y="57.75" width="1.22" height="154.58"/><rect class="cls-23" x="133.33" y="57.75" width="1.22" height="154.58"/><rect class="cls-24" x="134.55" y="57.75" width="1.22" height="154.58"/><rect class="cls-25" x="135.77" y="57.75" width="1.22" height="154.58"/><rect class="cls-26" x="136.98" y="57.75" width="1.22" height="154.58"/><rect class="cls-27" x="138.2" y="57.75" width="1.22" height="154.58"/><rect class="cls-28" x="139.42" y="57.75" width="1.22" height="154.58"/><rect class="cls-29" x="140.63" y="57.75" width="1.22" height="154.58"/><rect class="cls-30" x="141.85" y="57.75" width="1.22" height="154.58"/><rect class="cls-31" x="143.07" y="57.75" width="1.22" height="154.58"/><rect class="cls-32" x="144.28" y="57.75" width="1.22" height="154.58"/><rect class="cls-33" x="145.5" y="57.75" width="1.22" height="154.58"/><rect class="cls-34" x="146.71" y="57.75" width="1.22" height="154.58"/><rect class="cls-35" x="147.93" y="57.75" width="1.22" height="154.58"/><rect class="cls-36" x="149.15" y="57.75" width="1.22" height="154.58"/><rect class="cls-37" x="150.36" y="57.75" width="1.22" height="154.58"/><rect class="cls-38" x="151.58" y="57.75" width="1.22" height="154.58"/><rect class="cls-39" x="152.8" y="57.75" width="1.22" height="154.58"/><rect class="cls-40" x="154.01" y="57.75" width="1.22" height="154.58"/><rect class="cls-41" x="155.23" y="57.75" width="1.22" height="154.58"/><rect class="cls-42" x="156.45" y="57.75" width="1.22" height="154.58"/><rect class="cls-43" x="157.66" y="57.75" width="1.22" height="154.58"/><rect class="cls-44" x="158.88" y="57.75" width="1.22" height="154.58"/><rect class="cls-45" x="160.1" y="57.75" width="1.22" height="154.58"/><rect class="cls-46" x="161.31" y="57.75" width="1.22" height="154.58"/><rect class="cls-47" x="162.53" y="57.75" width="1.22" height="154.58"/><rect class="cls-48" x="163.74" y="57.75" width="1.22" height="154.58"/><rect class="cls-49" x="164.96" y="57.75" width="1.22" height="154.58"/><rect class="cls-50" x="166.18" y="57.75" width="1.22" height="154.58"/><rect class="cls-51" x="167.39" y="57.75" width="1.22" height="154.58"/><rect class="cls-52" x="168.61" y="57.75" width="1.22" height="154.58"/><rect class="cls-53" x="169.83" y="57.75" width="1.22" height="154.58"/><rect class="cls-54" x="171.04" y="57.75" width="1.22" height="154.58"/><rect class="cls-55" x="172.26" y="57.75" width="1.22" height="154.58"/><rect class="cls-56" x="173.48" y="57.75" width="1.22" height="154.58"/><rect class="cls-57" x="174.69" y="57.75" width="1.22" height="154.58"/><rect class="cls-58" x="175.91" y="57.75" width="1.22" height="154.58"/><rect class="cls-59" x="177.13" y="57.75" width="1.22" height="154.58"/><rect class="cls-60" x="178.34" y="57.75" width="1.22" height="154.58"/><rect class="cls-61" x="179.56" y="57.75" width="1.22" height="154.58"/><rect class="cls-62" x="180.78" y="57.75" width="1.22" height="154.58"/><rect class="cls-63" x="181.99" y="57.75" width="1.22" height="154.58"/><rect class="cls-64" x="183.21" y="57.75" width="1.22" height="154.58"/><rect class="cls-65" x="184.42" y="57.75" width="1.22" height="154.58"/><rect class="cls-66" x="185.64" y="57.75" width="1.22" height="154.58"/><rect class="cls-67" x="186.86" y="57.75" width="1.22" height="154.58"/><path class="cls-67" d="M188.07,213.33v0Z" transform="translate(0 -1)"/></g><path class="cls-78" d="M119.22,214.53a16.58,16.58,0,0,1-8.15-2l-53.76-31a17.78,17.78,0,0,1-8.15-14.12V105.31A17.74,17.74,0,0,1,57.31,91.2l53.76-31a17.79,17.79,0,0,1,16.3,0l53.28,30.66c6.06,3.48,7,5.71,7.12,7.27a4.16,4.16,0,0,1-1.49,3.54c-1.49,1.22-4.16,2.06-11.73-2.31l-51-29.46a10,10,0,0,0-8.63,0L63.79,99.37a10,10,0,0,0-4.32,7.46v59a10,10,0,0,0,4.32,7.47l51.11,29.51a10,10,0,0,0,8.63,0l51.12-29.51a10,10,0,0,0,4.31-7.47V154a3.37,3.37,0,0,0-3.36-3.36H127c-6.62,0-11-.84-11-5s4.41-5,11-5H182.7l1.22,0h.2c3.56,0,5.15,3.4,5.15,11v15.61a17.78,17.78,0,0,1-8.15,14.12l-53.75,31A16.61,16.61,0,0,1,119.22,214.53Zm0-154a14.22,14.22,0,0,0-7,1.67l-53.76,31a15.41,15.41,0,0,0-6.95,12v62.07a15.38,15.38,0,0,0,6.95,12l53.76,31c3.73,2.16,10.16,2.16,13.9,0l53.75-31a15.36,15.36,0,0,0,7-12V151.77c0-8.63-2.07-8.63-2.75-8.63a7.85,7.85,0,0,0-1.25.05l-1.34.16v-.2H127c-8.64,0-8.64,1.73-8.64,2.56s0,2.56,8.64,2.56H175.6a5.77,5.77,0,0,1,5.76,5.76v11.82a12.42,12.42,0,0,1-5.51,9.55l-51.12,29.51a12.43,12.43,0,0,1-11,0L62.59,175.41a12.4,12.4,0,0,1-5.52-9.55v-59a12.4,12.4,0,0,1,5.52-9.54L113.7,67.77a12.43,12.43,0,0,1,11,0l51,29.46c3.24,1.87,7.43,3.83,9,2.54a1.78,1.78,0,0,0,.62-1.49c-.15-1.72-3.3-3.88-5.92-5.39L126.17,62.23A14.11,14.11,0,0,0,119.23,60.57Z" transform="translate(0 -1)"/></svg>